<svg width="40" height="40" viewBox="0 0 40 40" fill="none" xmlns="http://www.w3.org/2000/svg">
<path d="M18 15V19V22.5C17.6 22.2 17.1 22 16.5 22C15.1 22 14 23.1 14 24.5C14 25.9 15.1 27 16.5 27C17.9 27 19 25.9 19 24.5V18.8L25 17.3V21.6C24.6 21.2 24.1 21 23.5 21C22.1 21 21 22.1 21 23.5C21 24.9 22.1 26 23.5 26C24.9 26 26 24.9 26 23.5V17V14V13L18 15ZM16.5 26C15.7 26 15 25.3 15 24.5C15 23.7 15.7 23 16.5 23C17.3 23 18 23.7 18 24.5C18 25.3 17.3 26 16.5 26ZM23.5 25C22.7 25 22 24.3 22 23.5C22 22.7 22.7 22 23.5 22C24.3 22 25 22.7 25 23.5C25 24.3 24.3 25 23.5 25ZM19 17.7V15.8L25 14.3V16.2L19 17.7Z" fill="white"/>
</svg>
