<svg width="40" height="40" viewBox="0 0 40 40" fill="none" xmlns="http://www.w3.org/2000/svg">
<path d="M19 23C20.6569 23 22 21.6569 22 20C22 18.3431 20.6569 17 19 17C17.3431 17 16 18.3431 16 20C16 21.6569 17.3431 23 19 23Z" fill="white"/>
<path d="M22 12H16V13H22V12Z" fill="white"/>
<path d="M12 15H26V17H27V14H11V26H20V25H12V15Z" fill="white"/>
<path d="M29 23V21.5C29 20.1 27.9 19 26.5 19C25.1 19 24 20.1 24 21.5V23H23V28H30V23H29ZM25.2 21.5C25.2 20.8 25.8 20.3 26.4 20.3C27 20.3 27.6 20.9 27.6 21.5V23H25.1V21.5H25.2Z" fill="white"/>
</svg>
