<svg width="40" height="40" viewBox="0 0 40 40" fill="none" xmlns="http://www.w3.org/2000/svg">
<path d="M19 23C20.6569 23 22 21.6569 22 20C22 18.3431 20.6569 17 19 17C17.3431 17 16 18.3431 16 20C16 21.6569 17.3431 23 19 23Z" fill="white"/>
<path d="M22 12H16V13H22V12Z" fill="white"/>
<path d="M12 15H26V17H27V14H11V26H20V25H12V15Z" fill="white"/>
<path d="M25.2 23V21.5C25.2 20.8 25.8 20.3 26.4 20.3C27.1 20.3 27.6 20.8 27.6 21.5L29 21.2C28.8 20 27.8 19 26.5 19C25.1 19 24 20.1 24 21.5V23H23V28H30V23H25.2ZM29 27H24V24H29V27Z" fill="white"/>
</svg>
