<svg width="34" height="34" viewBox="0 0 34 34" fill="none" xmlns="http://www.w3.org/2000/svg">
<path id="Comment" fill-rule="evenodd" clip-rule="evenodd" d="M17 34C26.3888 34 34 26.3888 34 17C34 7.61116 26.3888 0 17 0C7.61116 0 0 7.61116 0 17C0 26.3888 7.61116 34 17 34ZM10.1659 11.9H23.8719C24.7805 11.9 25.5378 12.6176 25.5378 13.4786V20.6543C25.5378 21.5154 24.7805 22.233 23.8719 22.233H19.177L17.2082 24.7444L15.2394 22.233H10.1659C9.25723 22.233 8.5 21.5154 8.5 20.6543V13.4786C8.5 12.6176 9.25723 11.9 10.1659 11.9Z" fill="white"/>
</svg>
