<svg width="40" height="40" viewBox="0 0 40 40" fill="none" xmlns="http://www.w3.org/2000/svg">
<path d="M18.9 14.5C18.7 13.6 17.9 13 17 13C16.1 13 15.3 13.6 15.1 14.5H12V15.5H15.1C15.3 16.4 16.1 17 17 17C17.9 17 18.7 16.4 18.9 15.5H28V14.5H18.9ZM17.8 15.5C17.7 15.8 17.4 16 17 16C16.6 16 16.3 15.8 16.2 15.5C16.1 15.4 16 15.2 16 15C16 14.8 16.1 14.6 16.2 14.5C16.3 14.2 16.6 14 17 14C17.4 14 17.7 14.2 17.8 14.5C17.9 14.6 18 14.8 18 15C18 15.2 17.9 15.4 17.8 15.5Z" fill="white"/>
<path d="M23 18C22.1 18 21.3 18.6 21.1 19.5H12V20.5H21.1C21.3 21.4 22.1 22 23 22C23.9 22 24.7 21.4 24.9 20.5H28V19.5H24.9C24.7 18.6 23.9 18 23 18ZM23.8 20.5C23.7 20.8 23.4 21 23 21C22.6 21 22.3 20.8 22.2 20.5C22.1 20.4 22 20.2 22 20C22 19.8 22.1 19.6 22.2 19.5C22.3 19.2 22.6 19 23 19C23.4 19 23.7 19.2 23.8 19.5C23.9 19.6 24 19.8 24 20C24 20.2 23.9 20.4 23.8 20.5Z" fill="white"/>
<path d="M17 23C16.1 23 15.3 23.6 15.1 24.5H12V25.5H15.1C15.3 26.4 16.1 27 17 27C17.9 27 18.7 26.4 18.9 25.5H28V24.5H18.9C18.7 23.6 17.9 23 17 23ZM17.8 25.5C17.7 25.8 17.4 26 17 26C16.6 26 16.3 25.8 16.2 25.5C16.1 25.4 16 25.2 16 25C16 24.8 16.1 24.6 16.2 24.5C16.3 24.2 16.6 24 17 24C17.4 24 17.7 24.2 17.8 24.5C17.9 24.6 18 24.8 18 25C18 25.2 17.9 25.4 17.8 25.5Z" fill="white"/>
</svg>
