<svg width="24" height="24" viewBox="0 0 24 24" fill="none" xmlns="http://www.w3.org/2000/svg">
<path d="M11.4 7.00005C11.2 6.30005 10.5 5.80005 9.8 5.80005C9.1 5.80005 8.3 6.30005 8.1 7.00005H6V8.00005H8.1C8.3 8.80005 9 9.30005 9.8 9.30005C10.6 9.30005 11.2 8.80005 11.4 8.00005H18V7.00005H11.4ZM9.8 8.60005C9.2 8.60005 8.8 8.20005 8.8 7.60005C8.8 7.00005 9.2 6.60005 9.8 6.60005C10.4 6.60005 10.8 7.00005 10.8 7.60005C10.8 8.10005 10.3 8.60005 9.8 8.60005Z" fill="white"/>
<path d="M9.8 13.8C9 13.8 8.3 14.3 8.1 15H6V16H8.1C8.3 16.8 9 17.3 9.8 17.3C10.6 17.3 11.3 16.8 11.5 16.1H18V15.1H11.4C11.2 14.3 10.5 13.8 9.8 13.8ZM9.8 16.6C9.2 16.6 8.8 16.2 8.8 15.6C8.8 15 9.2 14.6 9.8 14.6C10.4 14.6 10.8 15 10.8 15.6C10.8 16.1 10.3 16.6 9.8 16.6Z" fill="white"/>
<path d="M14.2 9.80005C13.5 9.80005 12.8 10.3 12.6 11H6V12H12.6C12.8 12.8 13.5 13.3 14.2 13.3C14.9 13.3 15.7 12.8 15.9 12H18V11H15.9C15.7 10.3 15 9.80005 14.2 9.80005ZM14.2 12.6C13.6 12.6 13.2 12.2 13.2 11.6C13.2 11 13.6 10.6 14.2 10.6C14.8 10.6 15.2 11 15.2 11.6C15.2 12.1 14.8 12.6 14.2 12.6Z" fill="white"/>
</svg>
