<svg width="44" height="44" viewBox="0 0 44 44" fill="none" xmlns="http://www.w3.org/2000/svg">
<rect x="7" y="11" width="30" height="22" rx="7" stroke="white" stroke-width="2"/>
<path d="M16.6084 26.1319C15.4084 26.1319 14.5924 25.7999 14.1604 25.1359C13.7364 24.4719 13.5244 23.3799 13.5244 21.8599C13.5244 20.3399 13.7404 19.2599 14.1724 18.6199C14.6044 17.9719 15.4164 17.6479 16.6084 17.6479C17.3204 17.6479 18.1044 17.7479 18.9604 17.9479L18.9124 19.0279C18.1924 18.8999 17.4724 18.8359 16.7524 18.8359C16.0324 18.8359 15.5444 19.0519 15.2884 19.4839C15.0324 19.9079 14.9044 20.7119 14.9044 21.8959C14.9044 23.0719 15.0284 23.8759 15.2764 24.3079C15.5244 24.7319 16.0084 24.9439 16.7284 24.9439C17.4484 24.9439 18.1764 24.8839 18.9124 24.7639L18.9484 25.8679C18.1244 26.0439 17.3444 26.1319 16.6084 26.1319Z" fill="white"/>
<path d="M23.4478 21.1159H21.7918V23.7559C21.7918 24.2439 21.8278 24.5679 21.8998 24.7279C21.9718 24.8879 22.1558 24.9679 22.4518 24.9679L23.4358 24.9319L23.4958 25.9759C22.9598 26.0799 22.5518 26.1319 22.2718 26.1319C21.5918 26.1319 21.1238 25.9759 20.8678 25.6639C20.6198 25.3519 20.4958 24.7639 20.4958 23.8999V21.1159H19.7278V19.9999H20.4958V18.2599H21.7918V19.9999H23.4478V21.1159Z" fill="white"/>
<path d="M24.5205 25.9999V19.9999H25.8165V20.7199C26.4965 20.2799 27.1765 19.9959 27.8565 19.8679V21.1759C27.1685 21.3119 26.5805 21.4879 26.0925 21.7039L25.8285 21.8119V25.9999H24.5205Z" fill="white"/>
<path d="M28.9285 25.9999V17.5039H30.2365V25.9999H28.9285Z" fill="white"/>
</svg>
