<svg width="40" height="40" viewBox="0 0 40 40" fill="none" xmlns="http://www.w3.org/2000/svg">
<g id="download small">
<g id="Group">
<path id="Vector" d="M14.3492 16.6511L14.3383 16.6506L14.3274 16.6507C12.2255 16.6592 10.5 18.4246 10.5 20.5753C10.5 22.7292 12.229 24.5 14.3803 24.5H23.6197C25.7623 24.5 27.5 22.7379 27.5 20.5753C27.5 18.756 26.2684 17.1801 24.5049 16.7667C24.5047 16.7666 24.5045 16.7666 24.5043 16.7665L24.353 16.7307L24.3219 16.5742C23.9004 14.2163 21.8808 12.5 19.5052 12.5C17.1685 12.5 15.157 14.1763 14.6969 16.4808L14.6969 16.4808L14.6963 16.4837L14.6615 16.6634L14.3492 16.6511Z" stroke="white"/>
<path id="Vector_2" d="M18.5625 19V17H20.4375V19H22L19.5 22L17 19H18.5625Z" fill="white"/>
</g>
</g>
</svg>
