<svg width="40" height="40" viewBox="0 0 40 40" fill="none" xmlns="http://www.w3.org/2000/svg">
<path d="M25 19C25 16.2 22.8 14 20 14C17.5 14 15.5 15.8 15 18.1C13.3 18.6 12 20.1 12 22C12 24.2 13.8 26 16 26C17.5 26 23 26 24.5 26C26.4 26 28 24.4 28 22.5C28 20.7 26.7 19.3 25 19ZM24.5 25H16C14.3 25 13 23.7 13 22C13 20.7 13.9 19.5 15.1 19.1C15.4 19.1 15.7 19 16 19C17.7 19 19 20.3 19 22H20C20 19.8 18.3 18.1 16.1 18C16.5 16.2 18.1 15 20 15C22.2 15 24 16.8 24 18.9V19V19.9L24.9 20C26.1 20.2 27 21.3 27 22.5C27 23.9 25.9 25 24.5 25Z" fill="white"/>
<path d="M20 15C22.2 15 24 16.8 24 18.9V19V19.9L24.9 20C26.1 20.2 27 21.3 27 22.5C27 23.9 25.9 25 24.5 25H16C14.3 25 13 23.7 13 22C13 20.6 14 19.4 15.3 19.1L16 18.9L16.1 18.3C16.4 16.4 18.1 15 20 15ZM20 14C17.5 14 15.5 15.8 15.1 18.1C13.3 18.5 12 20.1 12 22C12 24.2 13.8 26 16 26C17.5 26 23 26 24.5 26C26.4 26 28 24.4 28 22.5C28 20.7 26.7 19.3 25 19C25 16.2 22.8 14 20 14Z" fill="white"/>
</svg>
