<svg width="40" height="40" viewBox="0 0 40 40" fill="none" xmlns="http://www.w3.org/2000/svg">
<path d="M19.5 22C20.8807 22 22 20.8807 22 19.5C22 18.1193 20.8807 17 19.5 17C18.1193 17 17 18.1193 17 19.5C17 20.8807 18.1193 22 19.5 22Z" fill="white"/>
<path d="M19.5 13C19.7761 13 20 12.7761 20 12.5C20 12.2239 19.7761 12 19.5 12C19.2239 12 19 12.2239 19 12.5C19 12.7761 19.2239 13 19.5 13Z" fill="white"/>
<path d="M26.5 20C26.7761 20 27 19.7761 27 19.5C27 19.2239 26.7761 19 26.5 19C26.2239 19 26 19.2239 26 19.5C26 19.7761 26.2239 20 26.5 20Z" fill="white"/>
<path d="M19.5 27C19.7761 27 20 26.7761 20 26.5C20 26.2239 19.7761 26 19.5 26C19.2239 26 19 26.2239 19 26.5C19 26.7761 19.2239 27 19.5 27Z" fill="white"/>
<path d="M12.5 20C12.7761 20 13 19.7761 13 19.5C13 19.2239 12.7761 19 12.5 19C12.2239 19 12 19.2239 12 19.5C12 19.7761 12.2239 20 12.5 20Z" fill="white"/>
<path d="M23.9 16C24.4523 16 24.9 15.5523 24.9 15C24.9 14.4477 24.4523 14 23.9 14C23.3477 14 22.9 14.4477 22.9 15C22.9 15.5523 23.3477 16 23.9 16Z" fill="white"/>
<path d="M24 24.9C24.5523 24.9 25 24.4523 25 23.9C25 23.3477 24.5523 22.9 24 22.9C23.4477 22.9 23 23.3477 23 23.9C23 24.4523 23.4477 24.9 24 24.9Z" fill="white"/>
<path d="M15.1 25C15.6523 25 16.1 24.5523 16.1 24C16.1 23.4477 15.6523 23 15.1 23C14.5477 23 14.1 23.4477 14.1 24C14.1 24.5523 14.5477 25 15.1 25Z" fill="white"/>
<path d="M15.1 16.1C15.6523 16.1 16.1 15.6523 16.1 15.1C16.1 14.5477 15.6523 14.1 15.1 14.1C14.5477 14.1 14.1 14.5477 14.1 15.1C14.1 15.6523 14.5477 16.1 15.1 16.1Z" fill="white"/>
</svg>
