<svg width="40" height="40" viewBox="0 0 40 40" fill="none" xmlns="http://www.w3.org/2000/svg">
<path d="M20 13C23.9 13 27 16.1 27 20C27 23.9 23.9 27 20 27C16.1 27 13 23.9 13 20C13 16.1 16.1 13 20 13ZM20 12C15.6 12 12 15.6 12 20C12 24.4 15.6 28 20 28C24.4 28 28 24.4 28 20C28 15.6 24.4 12 20 12Z" fill="white"/>
<path d="M21.8 14.3L20 16.1V17.5L22.8 14.7C22.5 14.5 22.2 14.4 21.8 14.3Z" fill="white"/>
<path d="M20 23.1L25.5 17.6C25.4 17.3 25.2 17 25 16.7L20 21.7V23.1Z" fill="white"/>
<path d="M20 25.9L26 19.9C26 19.5 25.9 19 25.8 18.6L20 24.5V25.9Z" fill="white"/>
<path d="M20 14.7L20.7 14C20.4 14 20.2 14 20 14V14.7Z" fill="white"/>
<path d="M25.8 21.5L21.5 25.8C23.6 25.3 25.3 23.6 25.8 21.5Z" fill="white"/>
<path d="M23.6 15.2L20 18.9V20.3L24.4 15.9C24.2 15.7 23.9 15.4 23.6 15.2Z" fill="white"/>
</svg>
