<svg width="40" height="40" viewBox="0 0 40 40" fill="none" xmlns="http://www.w3.org/2000/svg">
<path d="M23 22C25.7614 22 28 19.7614 28 17C28 14.2386 25.7614 12 23 12C20.2386 12 18 14.2386 18 17C18 19.7614 20.2386 22 23 22Z" fill="white"/>
<path d="M15 21C16.1 21 17 21.9 17 23C17 24.1 16.1 25 15 25C13.9 25 13 24.1 13 23C13 21.9 13.9 21 15 21ZM15 20C13.3 20 12 21.3 12 23C12 24.7 13.3 26 15 26C16.7 26 18 24.7 18 23C18 21.3 16.7 20 15 20Z" fill="white"/>
<path d="M23 28C24.1046 28 25 27.1046 25 26C25 24.8954 24.1046 24 23 24C21.8954 24 21 24.8954 21 26C21 27.1046 21.8954 28 23 28Z" fill="white"/>
</svg>
