<svg width="40" height="40" viewBox="0 0 40 40" fill="none" xmlns="http://www.w3.org/2000/svg">
<path d="M25 19H24V20H25V19Z" fill="white"/>
<path d="M20 15H19V16H20V15Z" fill="white"/>
<path d="M26 21H23V24H26V21Z" fill="white"/>
<path d="M21 18H18V21H21V18Z" fill="white"/>
<path d="M25 25H24V26H25V25Z" fill="white"/>
<path d="M25 13H24V14H25V13Z" fill="white"/>
<path d="M20 23H19V24H20V23Z" fill="white"/>
<path d="M21 26H18V27H21V26Z" fill="white"/>
<path d="M26 15H23V18H26V15Z" fill="white"/>
<path d="M15 19H14V20H15V19Z" fill="white"/>
<path d="M16 21H13V24H16V21Z" fill="white"/>
<path d="M15 25H14V26H15V25Z" fill="white"/>
<path d="M15 13H14V14H15V13Z" fill="white"/>
<path d="M16 15H13V18H16V15Z" fill="white"/>
<path d="M21 12H18V13H21V12Z" fill="white"/>
</svg>
