<svg width="40" height="40" viewBox="0 0 40 40" fill="none" xmlns="http://www.w3.org/2000/svg">
<path d="M14 25.5C14.8 25.5 15.5 24.8 15.5 24C15.5 23.2 14.8 22.5 14 22.5C13.2 22.5 12.5 23.2 12.5 24C12.5 24.8 13.2 25.5 14 25.5ZM18 21C18.6 21 19 20.6 19 20C19 19.4 18.6 19 18 19C17.4 19 17 19.4 17 20C17 20.6 17.4 21 18 21ZM18 17C18.6 17 19 16.6 19 16C19 15.4 18.6 15 18 15C17.4 15 17 15.4 17 16C17 16.6 17.4 17 18 17ZM12 28H28V27H12V28ZM14 17.5C14.8 17.5 15.5 16.8 15.5 16C15.5 15.2 14.8 14.5 14 14.5C13.2 14.5 12.5 15.2 12.5 16C12.5 16.8 13.2 17.5 14 17.5ZM14 21.5C14.8 21.5 15.5 20.8 15.5 20C15.5 19.2 14.8 18.5 14 18.5C13.2 18.5 12.5 19.2 12.5 20C12.5 20.8 13.2 21.5 14 21.5ZM18 25C18.6 25 19 24.5 19 24C19 23.5 18.6 23 18 23C17.4 23 17 23.4 17 24C17 24.5 17.4 25 18 25ZM26 24.5C26.3 24.5 26.5 24.3 26.5 24C26.5 23.7 26.3 23.5 26 23.5C25.7 23.5 25.5 23.7 25.5 24C25.5 24.3 25.7 24.5 26 24.5ZM12 12V13H28V12H12ZM26 16.5C26.3 16.5 26.5 16.3 26.5 16C26.5 15.7 26.3 15.5 26 15.5C25.7 15.5 25.5 15.7 25.5 16C25.5 16.3 25.7 16.5 26 16.5ZM26 20.5C26.3 20.5 26.5 20.3 26.5 20C26.5 19.7 26.3 19.5 26 19.5C25.7 19.5 25.5 19.7 25.5 20C25.5 20.3 25.7 20.5 26 20.5ZM22 17C22.6 17 23 16.6 23 16C23 15.4 22.6 15 22 15C21.4 15 21 15.4 21 16C21 16.6 21.4 17 22 17ZM22 21C22.6 21 23 20.6 23 20C23 19.4 22.6 19 22 19C21.4 19 21 19.4 21 20C21 20.6 21.4 21 22 21ZM22 25C22.6 25 23 24.5 23 24C23 23.5 22.6 23 22 23C21.4 23 21 23.4 21 24C21 24.5 21.4 25 22 25Z" fill="white"/>
</svg>
