<svg width="40" height="40" viewBox="0 0 40 40" fill="none" xmlns="http://www.w3.org/2000/svg">
<path d="M22.3415 13.6688C22.9268 13.8636 23.5122 14.2532 24 14.6429L23.3171 15.9091L23.8049 16.3961C24.2927 16.9805 24.6829 17.6623 24.9756 18.3442L25.1707 19.026H26.6341C26.6341 19.3182 26.6341 19.7078 26.6341 20C26.6341 20.2922 26.6341 20.6818 26.5366 20.974H25.0732L24.878 21.6558C24.6829 22.3377 24.2927 23.0195 23.7073 23.6039L23.2195 24.0909L23.9024 25.3571C23.4146 25.7468 22.8293 26.039 22.2439 26.3312L21.561 25.0649L20.878 25.2597C20.4878 25.3571 20.0976 25.3571 19.7073 25.3571C19.3171 25.3571 18.9268 25.3571 18.5366 25.2597L17.8537 25.0649L17.1707 26.3312C16.5854 26.1364 16 25.7468 15.5122 25.3571L16.1951 24.0909L15.7073 23.6039C15.2195 23.0195 14.8293 22.3377 14.5366 21.6558L14.439 20.974H13.0732C12.9756 20.6818 12.9756 20.2922 12.9756 20C12.9756 19.7078 12.9756 19.3182 13.0732 19.026H14.5366L14.7317 18.3442C14.9268 17.6623 15.3171 16.9805 15.8049 16.3961L16.2927 15.9091L15.6098 14.6429C16.0976 14.2532 16.6829 13.961 17.2683 13.6688L17.9512 14.9351L18.6341 14.7403C19.0244 14.6429 19.4146 14.6429 19.8049 14.6429C20.1951 14.6429 20.5854 14.6429 20.9756 14.7403L21.6585 14.9351L22.3415 13.6688ZM19.8049 22.9221C21.4634 22.9221 22.7317 21.6558 22.7317 20C22.7317 18.3442 21.4634 17.0779 19.8049 17.0779C18.1463 17.0779 16.878 18.3442 16.878 20C16.878 21.6558 18.1463 22.9221 19.8049 22.9221ZM21.8537 12.5L21.1707 13.7662C20.6829 13.7662 20.2927 13.6688 19.8049 13.6688C19.3171 13.6688 18.9268 13.7662 18.439 13.7662L17.7561 12.5C16.3902 12.8896 15.2195 13.5714 14.3415 14.4481L15.122 15.8117C14.5366 16.3961 14.0488 17.1753 13.7561 18.0519H12.2927C12.0976 18.6364 12 19.3182 12 20C12 20.6818 12.0976 21.3636 12.2927 21.9481H13.8537C14.1463 22.8247 14.6341 23.6039 15.2195 24.1883L14.439 25.5519C15.4146 26.4286 16.4878 27.1104 17.8537 27.5L18.6341 26.2338C19.0244 26.3312 19.5122 26.3312 20 26.3312C20.4878 26.3312 20.878 26.2338 21.3659 26.2338L22.1463 27.5C23.4146 27.1104 24.5854 26.4286 25.561 25.5519L24.7805 24.1883C25.3659 23.5065 25.8537 22.7273 26.1463 21.9481H27.7073C27.9024 21.3636 28 20.6818 28 20C28 19.3182 27.9024 18.6364 27.7073 18.0519H26.1463C25.8537 17.1753 25.3659 16.3961 24.7805 15.8117L25.2683 14.4481C24.3902 13.5714 23.2195 12.8896 21.8537 12.5ZM19.8049 21.9481C18.7317 21.9481 17.8537 21.0714 17.8537 20C17.8537 18.9286 18.7317 18.0519 19.8049 18.0519C20.878 18.0519 21.7561 18.9286 21.7561 20C21.7561 21.0714 20.878 21.9481 19.8049 21.9481Z" fill="white"/>
</svg>
