<svg width="40" height="40" viewBox="0 0 40 40" fill="none" xmlns="http://www.w3.org/2000/svg">
<g clip-path="url(#clip0)">
<path d="M31.5 16.4L29 16.1C28.7 15.3 28.2 14.5 27.7 13.8L28.6 11.5C27 9.8 25 8.5 22.6 8L21.2 9.8C20.8 9.7 20.4 9.7 19.9 9.7C19.4 9.7 19 9.7 18.6 9.8L17.4 8C15 8.5 13 9.8 11.4 11.5L12.3 13.8C11.7 14.4 11.3 15.2 11 16.1L8.5 16.4C8.2 17.6 8 18.8 8 20C8 21.2 8.2 22.4 8.5 23.6L11 23.9C11.3 24.7 11.8 25.5 12.3 26.2L11.4 28.5C13 30.2 15 31.5 17.4 32L18.8 30.2C19.2 30.3 19.6 30.3 20.1 30.3C20.6 30.3 21 30.3 21.4 30.2L22.8 32C25.1 31.5 27.2 30.2 28.8 28.5L27.9 26.2C28.4 25.5 28.9 24.7 29.2 23.9L31.7 23.5C32 22.4 32.2 21.2 32.2 20C32 18.8 31.8 17.6 31.5 16.4ZM29.9 21.8L28.8 22L27.6 22.2L27.2 23.3C27 23.9 26.6 24.5 26.2 25.1L25.6 26L26 27L26.4 28.1C25.5 28.8 24.6 29.4 23.5 29.8L22.9 29L22.1 28L20.9 28.2C20.7 28.2 20.4 28.3 20 28.3C19.7 28.3 19.4 28.3 19 28.2L17.8 28L17.1 29L16.6 29.7C15.6 29.3 14.6 28.7 13.7 28L14.1 27L14.5 26L13.8 25C13.4 24.5 13.1 23.9 12.8 23.2L12.4 22.2L11.3 22L10.2 21.8C10.1 21.2 10 20.6 10 20C10 19.4 10.1 18.8 10.2 18.2L11.3 18L12.5 17.8L12.9 16.7C13.1 16.1 13.5 15.5 13.9 14.9L14.5 14L14.1 13L13.7 12C14.6 11.3 15.5 10.7 16.6 10.3L17.1 11L17.8 12L19 11.8C19.3 11.8 19.7 11.7 20 11.7C20.3 11.7 20.7 11.7 21 11.8L22.2 12L22.9 11L23.4 10.3C24.4 10.7 25.4 11.3 26.3 12L25.9 13L25.5 14L26.1 14.9C26.5 15.4 26.8 16.1 27.1 16.8L27.5 17.8L28.6 18L29.7 18.2C29.8 18.8 29.9 19.4 29.9 20C30 20.6 29.9 21.2 29.9 21.8Z" fill="white"/>
<path d="M20 17C21.7 17 23 18.3 23 20C23 21.7 21.7 23 20 23C18.3 23 17 21.7 17 20C17 18.3 18.3 17 20 17ZM20 16C17.8 16 16 17.8 16 20C16 22.2 17.8 24 20 24C22.2 24 24 22.2 24 20C24 17.8 22.2 16 20 16Z" fill="white"/>
</g>
<defs>
<clipPath id="clip0">
<rect width="24" height="24" fill="white" transform="translate(8 8)"/>
</clipPath>
</defs>
</svg>
