<svg width="44" height="44" viewBox="0 0 44 44" fill="none" xmlns="http://www.w3.org/2000/svg">
<path d="M9 23H6V28H2L7.5 33L13 28H9V23Z" fill="white"/>
<path d="M2 12H6V17H9V12H13L7.5 7L2 12Z" fill="white"/>
<path d="M38.7874 16.4667C38.4857 15.2877 37.3794 14.5018 36.072 14.4035C35.6697 14.4035 35.2674 14.4035 35.0663 14.5018C34.8652 14.5018 34.664 14.6 34.4629 14.6982C33.7589 13.4211 32.2503 12.7333 30.6412 13.1263C30.0377 13.3228 29.5349 13.5193 29.1326 13.9123C28.328 13.1263 27.0206 12.8316 25.9143 13.0281C25.2103 13.2246 24.4057 13.7158 23.9029 14.4035C23.4 13.5193 22.8972 12.8316 22.4949 12.2421C21.288 10.8667 19.5783 9.19649 17.768 9C17.3658 9 17.064 9 16.7623 9.09825C15.8572 9.29474 15.0526 9.98246 14.6503 10.8667C14.248 11.7509 14.3486 12.8316 14.8515 13.7158C15.2538 14.4035 15.7566 14.7965 16.36 15.2877C17.064 15.8772 17.8686 16.4667 18.5726 18.0386C19.3772 19.7088 20.1817 22.5579 20.7852 24.3263L18.7737 23.2456C16.8629 22.1649 14.5498 22.8526 13.544 24.6211C13.0412 25.5053 12.84 26.4877 13.1418 27.4702C13.4435 28.4526 14.0469 29.2386 14.952 29.7298C15.656 30.1228 25.9143 37 29.9372 37C31.2446 37 32.4514 36.9018 33.96 36.5088C39.1897 35.2316 41 31.1053 41 28.1579C41 24.5228 38.888 16.4667 38.7874 16.4667ZM38.7874 28.7474C38.184 31.4 37.48 33.4632 33.3566 34.5439C32.1497 34.8386 31.0434 34.9368 29.8366 34.8386C27.5234 34.6421 25.512 33.4632 23.0983 32.186L22.4949 31.793C18.8743 29.7298 16.2595 28.0596 16.0583 27.9614C15.656 27.7649 15.4549 27.3719 15.2538 26.9789C15.1532 26.586 15.1532 26.0947 15.4549 25.7018C15.7566 25.1123 16.36 24.8175 17.064 24.9158C17.2652 24.9158 17.4663 25.014 17.768 25.1123L21.992 27.6667C22.3943 27.8632 22.7966 27.8632 23.1989 27.6667C23.6012 27.3719 23.7017 26.9789 23.6012 26.586C23.1989 25.014 21.4892 19.2175 20.584 17.2526C19.5783 15.1895 18.3715 14.207 17.6675 13.7158L17.5669 13.6175C17.2652 13.3228 16.9635 13.1263 16.8629 12.8316C16.6618 12.5368 16.6618 12.1439 16.7623 11.8491C16.8629 11.4561 17.064 11.2596 17.3658 11.2596C17.8686 11.1614 19.176 11.8491 20.7852 13.7158C21.992 15.1895 23.5006 18.5298 23.8023 19.1193C24.0035 19.6105 24.6069 19.9053 25.2103 19.7088C25.8137 19.5123 26.1155 18.9228 25.9143 18.4316L25.512 16.8596C25.4115 16.4667 25.512 16.1719 25.7132 15.7789C25.9143 15.4842 26.3166 15.2877 26.7189 15.1895C27.4229 14.993 28.0263 15.386 28.1269 15.9754L28.7303 18.1368C28.8309 18.4316 29.032 18.6281 29.2332 18.8246C29.5349 18.9228 29.736 19.0211 30.0377 18.9228C30.3394 18.8246 30.5406 18.6281 30.7417 18.4316C30.8423 18.1368 30.9429 17.8421 30.8423 17.6456L30.5406 16.6632C30.44 16.3684 30.5406 16.0737 30.6412 15.7789C30.8423 15.4842 31.0434 15.2877 31.3452 15.2877C31.4457 15.2877 31.5463 15.2877 31.7474 15.2877C32.2503 15.2877 32.6526 15.6807 32.7532 16.1719L33.4572 18.7263C33.5577 19.0211 33.7589 19.2175 33.96 19.414C34.2617 19.5123 34.4629 19.6105 34.7646 19.5123C35.0663 19.414 35.2674 19.2175 35.4686 19.0211C35.5692 18.7263 35.6697 18.4316 35.5691 18.2351L35.2674 17.0561C35.368 16.9579 35.5692 16.8596 35.6697 16.8596C36.1726 16.7614 36.5749 16.9579 36.6754 17.3509C37.6811 20.593 39.0891 26.9789 38.7874 28.7474Z" fill="white"/>
</svg>
