<svg width="49" height="49" viewBox="0 0 49 49" fill="none" xmlns="http://www.w3.org/2000/svg">
<path d="M27 14C21.5 14 17 18.5 17 24V30C17 35.5 21.5 40 27 40C32.5 40 37 35.5 37 30V24C37 18.5 32.5 14 27 14ZM35 24H27V16C31.4 16 35 19.6 35 24ZM27 38C22.6 38 19 34.4 19 30V26H35V30C35 34.4 31.4 38 27 38Z" fill="white"/>
<mask id="mask0" mask-type="alpha" maskUnits="userSpaceOnUse" x="6" y="3" width="19" height="21">
<rect x="6" y="3" width="19" height="21" fill="#C4C4C4"/>
</mask>
<g mask="url(#mask0)">
<path fill-rule="evenodd" clip-rule="evenodd" d="M43 24V30C43 38.8366 35.8366 46 27 46C18.1634 46 11 38.8366 11 30V24C11 15.1634 18.1634 8 27 8C35.8366 8 43 15.1634 43 24ZM9 24C9 14.0589 17.0589 6 27 6C36.9411 6 45 14.0589 45 24V30C45 39.9411 36.9411 48 27 48C17.0589 48 9 39.9411 9 30V24ZM26 12H28C34.0751 12 39 16.9249 39 23V31C39 37.0751 34.0751 42 28 42H26C19.9249 42 15 37.0751 15 31V23C15 16.9249 19.9249 12 26 12ZM13 23C13 15.8203 18.8203 10 26 10H28C35.1797 10 41 15.8203 41 23V31C41 38.1797 35.1797 44 28 44H26C18.8203 44 13 38.1797 13 31V23Z" fill="white"/>
</g>
</svg>
