<svg width="46" height="44" viewBox="0 0 46 44" fill="none" xmlns="http://www.w3.org/2000/svg">
<path d="M9 7L4 11.9L9 17V13C11.4 13.4 13.2 15.5 13.2 18C13.2 18.7 13 19.4 12.7 20.1L14.5 21.9C15.2 20.8 15.6 19.4 15.6 18C15.6 14.1 12.7 11 8.9 10.5V7H9Z" fill="#242424"/>
<path d="M8 23.0001C5.5 22.7001 3.5 20.6001 3.5 18.0001C3.5 17.3001 3.7 16.6001 3.9 16.0001L2.1 14.1001C1.4 15.2001 1 16.6001 1 18.0001C1 22.0001 4.1 25.2001 8 25.5001V29.0001L13 24.2001L8 19.0001V23.0001Z" fill="#242424"/>
<path d="M40.7874 16.4667C40.4857 15.2877 39.3794 14.5018 38.072 14.4035C37.6697 14.4035 37.2674 14.4035 37.0663 14.5018C36.8652 14.5018 36.664 14.6 36.4629 14.6982C35.7589 13.4211 34.2503 12.7333 32.6412 13.1263C32.0377 13.3228 31.5349 13.5193 31.1326 13.9123C30.328 13.1263 29.0206 12.8316 27.9143 13.0281C27.2103 13.2246 26.4057 13.7158 25.9029 14.4035C25.4 13.5193 24.8972 12.8316 24.4949 12.2421C23.288 10.8667 21.5783 9.19649 19.768 9C19.3658 9 19.064 9 18.7623 9.09825C17.8572 9.29474 17.0526 9.98246 16.6503 10.8667C16.248 11.7509 16.3486 12.8316 16.8515 13.7158C17.2538 14.4035 17.7566 14.7965 18.36 15.2877C19.064 15.8772 19.8686 16.4667 20.5726 18.0386C21.3772 19.7088 22.1817 22.5579 22.7852 24.3263L20.7737 23.2456C18.8629 22.1649 16.5498 22.8526 15.544 24.6211C15.0412 25.5053 14.84 26.4877 15.1418 27.4702C15.4435 28.4526 16.0469 29.2386 16.952 29.7298C17.656 30.1228 27.9143 37 31.9372 37C33.2446 37 34.4514 36.9018 35.96 36.5088C41.1897 35.2316 43 31.1053 43 28.1579C43 24.5228 40.888 16.4667 40.7874 16.4667ZM40.7874 28.7474C40.184 31.4 39.48 33.4632 35.3566 34.5439C34.1497 34.8386 33.0434 34.9368 31.8366 34.8386C29.5234 34.6421 27.512 33.4632 25.0983 32.186L24.4949 31.793C20.8743 29.7298 18.2595 28.0596 18.0583 27.9614C17.656 27.7649 17.4549 27.3719 17.2538 26.9789C17.1532 26.586 17.1532 26.0947 17.4549 25.7018C17.7566 25.1123 18.36 24.8175 19.064 24.9158C19.2652 24.9158 19.4663 25.014 19.768 25.1123L23.992 27.6667C24.3943 27.8632 24.7966 27.8632 25.1989 27.6667C25.6012 27.3719 25.7017 26.9789 25.6012 26.586C25.1989 25.014 23.4892 19.2175 22.584 17.2526C21.5783 15.1895 20.3715 14.207 19.6675 13.7158L19.5669 13.6175C19.2652 13.3228 18.9635 13.1263 18.8629 12.8316C18.6618 12.5368 18.6618 12.1439 18.7623 11.8491C18.8629 11.4561 19.064 11.2596 19.3658 11.2596C19.8686 11.1614 21.176 11.8491 22.7852 13.7158C23.992 15.1895 25.5006 18.5298 25.8023 19.1193C26.0035 19.6105 26.6069 19.9053 27.2103 19.7088C27.8137 19.5123 28.1155 18.9228 27.9143 18.4316L27.512 16.8596C27.4115 16.4667 27.512 16.1719 27.7132 15.7789C27.9143 15.4842 28.3166 15.2877 28.7189 15.1895C29.4229 14.993 30.0263 15.386 30.1269 15.9754L30.7303 18.1368C30.8309 18.4316 31.032 18.6281 31.2332 18.8246C31.5349 18.9228 31.736 19.0211 32.0377 18.9228C32.3394 18.8246 32.5406 18.6281 32.7417 18.4316C32.8423 18.1368 32.9429 17.8421 32.8423 17.6456L32.5406 16.6632C32.44 16.3684 32.5406 16.0737 32.6412 15.7789C32.8423 15.4842 33.0434 15.2877 33.3452 15.2877C33.4457 15.2877 33.5463 15.2877 33.7474 15.2877C34.2503 15.2877 34.6526 15.6807 34.7532 16.1719L35.4572 18.7263C35.5577 19.0211 35.7589 19.2175 35.96 19.414C36.2617 19.5123 36.4629 19.6105 36.7646 19.5123C37.0663 19.414 37.2674 19.2175 37.4686 19.0211C37.5692 18.7263 37.6697 18.4316 37.5691 18.2351L37.2674 17.0561C37.368 16.9579 37.5692 16.8596 37.6697 16.8596C38.1726 16.7614 38.5749 16.9579 38.6754 17.3509C39.6811 20.593 41.0891 26.9789 40.7874 28.7474Z" fill="#242424"/>
</svg>
