<svg width="44" height="44" viewBox="0 0 44 44" fill="none" xmlns="http://www.w3.org/2000/svg">
<path d="M31 20C30.6 20 30.2 20.1 29.9 20.2C29.5 18.9 28.4 18 27 18C26.5 18 26 18.2 25.5 18.4C25 17.6 24.1 17 23 17C22.6 17 22.3 17.1 22 17.2V15.2C23.8 14.2 25 12.2 25 10C25 6.7 22.3 4 19 4C15.7 4 13 6.7 13 10C13 12.2 14.2 14.1 16 15.2V24C13.5 24 12 28.4 12 30C12 30 12.1 33.6 12.2 33.8C13 38.6 17.2 42 22.2 42H23.7C29.2 42 34 37.2 34 32C34 26.8 34 23 34 23C34 21.3 32.7 20 31 20ZM15 10C15 7.8 16.8 6 19 6C21.2 6 23 7.8 23 10C23 11 22.6 11.9 22 12.6V12C22 10.3 20.7 9 19 9C17.3 9 16 10.3 16 12V12.6C15.4 11.9 15 11 15 10ZM32 29.4V30V32.4C32 36.6 28.6 40 24.4 40H21.6C18.6 40 14 36 14 32C14 30 14 32 14 30C14 28 15 26 16 26V30C16 30.6 16.4 31 17 31C17.6 31 18 30.6 18 30V22.8V17V15.9V13.9V12C18 11.4 18.4 11 19 11C19.6 11 20 11.4 20 12V13.9V16V18V21V24C20 24.6 20.4 25 21 25C21.6 25 22 24.6 22 24V21V20C22 19.4 22.4 19 23 19C23.6 19 24 19.4 24 20V20.9V21V23C24 23.6 24.4 24 25 24C25.6 24 26 23.6 26 23V21C26 20.4 26.4 20 27 20C27.6 20 28 20.4 28 21V24C28 24.6 28.4 25 29 25C29.6 25 30 24.6 30 24V23C30 22.4 30.4 22 31 22C31.6 22 32 22.4 32 23V29.4Z" fill="white"/>
<path fill-rule="evenodd" clip-rule="evenodd" d="M21 16.7101C23.8915 15.8496 26 13.171 26 10C26 6.13401 22.866 3 19 3C15.134 3 12 6.13401 12 10C12 13.171 14.1085 15.8496 17 16.7101V18.777C12.992 17.8675 10 14.2832 10 10C10 5.02944 14.0294 1 19 1C23.9706 1 28 5.02944 28 10C28 14.2832 25.008 17.8675 21 18.777V16.7101Z" fill="white"/>
</svg>
