<svg width="101" height="102" viewBox="0 0 101 102" fill="none" xmlns="http://www.w3.org/2000/svg">
<g filter="url(#filter0_d)">
<path d="M64.6116 51.0007C64.6116 43.0258 58.2203 36.5698 50.3251 36.5698C42.4298 36.5698 36.0385 43.0258 36.0385 51.0007C36.0385 58.9757 42.4298 65.4316 50.3251 65.4316C58.2203 65.4316 64.6116 58.9757 64.6116 51.0007ZM40.55 51.0007C40.55 45.5322 44.9112 41.127 50.3251 41.127C55.7389 41.127 60.1001 45.5322 60.1001 51.0007C60.1001 56.4693 55.7389 60.8745 50.3251 60.8745C44.9112 60.8745 40.55 56.4693 40.55 51.0007Z" fill="white"/>
<path d="M52.5807 25.9365H48.0691V30.4937H52.5807V25.9365Z" fill="white"/>
<path d="M34.3885 31.6688L31.1984 34.8911L34.3885 38.1135L37.5786 34.8911L34.3885 31.6688Z" fill="white"/>
<path d="M30.0234 48.7231H25.5118V53.2803H30.0234V48.7231Z" fill="white"/>
<path d="M75.139 48.7231H70.6274V53.2803H75.139V48.7231Z" fill="white"/>
<path d="M66.2758 31.6805L63.0857 34.9028L66.2758 38.1252L69.4659 34.9028L66.2758 31.6805Z" fill="white"/>
<rect x="42.8253" y="58.7251" width="15" height="9" fill="white"/>
<rect x="42.8253" y="69.7251" width="15" height="2" fill="white"/>
</g>
<defs>
<filter id="filter0_d" x="-1.1748" y="-1" width="103" height="104" filterUnits="userSpaceOnUse" color-interpolation-filters="sRGB">
<feFlood flood-opacity="0" result="BackgroundImageFix"/>
<feColorMatrix in="SourceAlpha" type="matrix" values="0 0 0 0 0 0 0 0 0 0 0 0 0 0 0 0 0 0 127 0"/>
<feOffset/>
<feGaussianBlur stdDeviation="1"/>
<feColorMatrix type="matrix" values="0 0 0 0 0 0 0 0 0 0 0 0 0 0 0 0 0 0 0.7 0"/>
<feBlend mode="normal" in2="BackgroundImageFix" result="effect1_dropShadow"/>
<feBlend mode="normal" in="SourceGraphic" in2="effect1_dropShadow" result="shape"/>
</filter>
</defs>
</svg>
