<svg width="40" height="40" viewBox="0 0 40 40" fill="none" xmlns="http://www.w3.org/2000/svg">
<g id="help">
<g id="Frame">
<g id="Group">
<path id="Vector" d="M19.5 13C23.1 13 26 15.9 26 19.5C26 23.1 23.1 26 19.5 26C15.9 26 13 23.1 13 19.5C13 15.9 15.9 13 19.5 13ZM19.5 12C15.4 12 12 15.4 12 19.5C12 23.6 15.4 27 19.5 27C23.6 27 27 23.6 27 19.5C27 15.4 23.6 12 19.5 12Z" fill="white"/>
<path id="Vector_2" d="M20 22H19V23H20V22Z" fill="white"/>
<path id="Vector_3" d="M19.5 16.5C18.4 16.5 17.5 17.4 17.5 18.5H18.5C18.5 17.9 18.9 17.5 19.5 17.5C20.1 17.5 20.5 17.9 20.5 18.5C20.5 19.5 19 19.4 19 21H20C20 19.9 21.5 19.7 21.5 18.5C21.5 17.4 20.6 16.5 19.5 16.5Z" fill="white"/>
</g>
</g>
</g>
</svg>
