<svg width="40" height="40" viewBox="0 0 40 40" fill="none" xmlns="http://www.w3.org/2000/svg">
<path d="M20 7C27.2 7 33 12.8 33 20C33 27.2 27.2 33 20 33C12.8 33 7 27.2 7 20C7 12.8 12.8 7 20 7ZM20 5C11.7 5 5 11.7 5 20C5 28.3 11.7 35 20 35C28.3 35 35 28.3 35 20C35 11.7 28.3 5 20 5Z" fill="white"/>
<path d="M21 24H19V26H21V24Z" fill="white"/>
<path d="M20 14C17.8 14 16 15.8 16 18H18C18 16.9 18.9 16 20 16C21.1 16 22 16.9 22 18C22 20 19 19.8 19 23H21C21 20.8 24 20.5 24 18C24 15.8 22.2 14 20 14Z" fill="white"/>
</svg>
