<svg width="40" height="40" viewBox="0 0 40 40" fill="none" xmlns="http://www.w3.org/2000/svg">
<g filter="url(#filter0_d)">
<path d="M20.4 13.8C21.7255 13.8 22.8 12.7255 22.8 11.4C22.8 10.0745 21.7255 9 20.4 9C19.0745 9 18 10.0745 18 11.4C18 12.7255 19.0745 13.8 20.4 13.8Z" fill="white"/>
<path d="M20.4 22.4C21.7255 22.4 22.8 21.3255 22.8 20C22.8 18.6745 21.7255 17.6 20.4 17.6C19.0745 17.6 18 18.6745 18 20C18 21.3255 19.0745 22.4 20.4 22.4Z" fill="white"/>
<path d="M20.4 31C21.7255 31 22.8 29.9254 22.8 28.6C22.8 27.2745 21.7255 26.2 20.4 26.2C19.0745 26.2 18 27.2745 18 28.6C18 29.9254 19.0745 31 20.4 31Z" fill="white"/>
</g>
<defs>
<filter id="filter0_d" x="-2" y="-2" width="44" height="44" filterUnits="userSpaceOnUse" color-interpolation-filters="sRGB">
<feFlood flood-opacity="0" result="BackgroundImageFix"/>
<feColorMatrix in="SourceAlpha" type="matrix" values="0 0 0 0 0 0 0 0 0 0 0 0 0 0 0 0 0 0 127 0"/>
<feOffset/>
<feGaussianBlur stdDeviation="1"/>
<feColorMatrix type="matrix" values="0 0 0 0 0 0 0 0 0 0 0 0 0 0 0 0 0 0 0.7 0"/>
<feBlend mode="normal" in2="BackgroundImageFix" result="effect1_dropShadow"/>
<feBlend mode="normal" in="SourceGraphic" in2="effect1_dropShadow" result="shape"/>
</filter>
</defs>
</svg>
