<svg width="44" height="44" viewBox="0 0 44 44" fill="none" xmlns="http://www.w3.org/2000/svg">
<path d="M19.6367 16.3V20.9V24.9C19.1333 24.6 18.6299 24.3 17.9252 24.3C16.3143 24.3 15.0054 25.6 15.0054 27.2C14.9048 28.7 16.2136 30 17.8245 30C19.4354 30 20.7442 28.7 20.7442 27.1V20.6L27.7918 18.9V23.8C27.2884 23.3 26.6844 23.1 26.0803 23.1C24.4694 23.1 23.1605 24.4 23.1605 26C23.1605 27.6 24.4694 28.9 26.0803 28.9C27.6912 28.9 29 27.6 29 26V18.6V15.1V14L19.6367 16.3ZM17.8245 28.9C16.9184 28.9 16.1129 28.1 16.1129 27.2C16.1129 26.3 16.9184 25.5 17.8245 25.5C18.7306 25.5 19.5361 26.3 19.5361 27.2C19.6367 28.1 18.8313 28.9 17.8245 28.9ZM26.0803 27.7C25.1742 27.7 24.268 26.9 24.268 26C24.268 25.1 25.0735 24.3 26.0803 24.3C26.9864 24.3 27.7918 25.1 27.7918 26C27.7918 26.9 26.9864 27.7 26.0803 27.7ZM20.7442 19.4V17.2L27.7918 15.5V17.7L20.7442 19.4Z" fill="#C2C2C2"/>
</svg>
