<svg width="94" height="68" viewBox="0 0 94 68" fill="none" xmlns="http://www.w3.org/2000/svg">
<g filter="url(#filter0_d)">
<path d="M47.0759 9.5C28.9712 9.5 14 23.85 14 41.7C14 48 15.7408 53.6 19.2225 58.5H75.2775C78.411 53.6 80.5 47.65 80.5 41.7C80.1518 23.85 65.1806 9.5 47.0759 9.5ZM73.1885 55H20.9634C18.5262 50.8 17.4817 46.25 17.4817 41.7C17.4817 25.95 30.712 13 47.0759 13C63.4398 13 76.6702 25.95 76.6702 41.7C76.6702 46.25 75.6257 50.8 73.1885 55Z" fill="white"/>
<path d="M49.1649 37.8499C48.4686 37.8499 47.7722 37.4999 47.0759 37.4999C44.2906 37.4999 41.8534 39.9499 41.8534 42.7499C41.8534 45.5499 44.2906 47.9999 47.0759 47.9999C49.8612 47.9999 52.2984 45.5499 52.2984 42.7499C52.2984 42.0499 51.9503 41.3499 51.9503 40.6499L58.2173 31.8999L49.1649 37.8499Z" fill="white"/>
<path d="M47.0759 23.5C48.0374 23.5 48.8168 22.7165 48.8168 21.75C48.8168 20.7835 48.0374 20 47.0759 20C46.1145 20 45.3351 20.7835 45.3351 21.75C45.3351 22.7165 46.1145 23.5 47.0759 23.5Z" fill="white"/>
<path d="M67.966 44.5C68.9274 44.5 69.7068 43.7165 69.7068 42.75C69.7068 41.7835 68.9274 41 67.966 41C67.0046 41 66.2252 41.7835 66.2252 42.75C66.2252 43.7165 67.0046 44.5 67.966 44.5Z" fill="white"/>
<path d="M26.1858 44.5C27.1473 44.5 27.9267 43.7165 27.9267 42.75C27.9267 41.7835 27.1473 41 26.1858 41C25.2244 41 24.445 41.7835 24.445 42.75C24.445 43.7165 25.2244 44.5 26.1858 44.5Z" fill="white"/>
<path d="M32.4528 29.8C33.4143 29.8 34.1937 29.0165 34.1937 28.05C34.1937 27.0836 33.4143 26.3 32.4528 26.3C31.4914 26.3 30.712 27.0836 30.712 28.05C30.712 29.0165 31.4914 29.8 32.4528 29.8Z" fill="white"/>
<path d="M61.699 29.8C62.6604 29.8 63.4398 29.0165 63.4398 28.05C63.4398 27.0836 62.6604 26.3 61.699 26.3C60.7375 26.3 59.9581 27.0836 59.9581 28.05C59.9581 29.0165 60.7375 29.8 61.699 29.8Z" fill="white"/>
</g>
<defs>
<filter id="filter0_d" x="12" y="7.5" width="70.5" height="53" filterUnits="userSpaceOnUse" color-interpolation-filters="sRGB">
<feFlood flood-opacity="0" result="BackgroundImageFix"/>
<feColorMatrix in="SourceAlpha" type="matrix" values="0 0 0 0 0 0 0 0 0 0 0 0 0 0 0 0 0 0 127 0"/>
<feOffset/>
<feGaussianBlur stdDeviation="1"/>
<feColorMatrix type="matrix" values="0 0 0 0 0 0 0 0 0 0 0 0 0 0 0 0 0 0 0.7 0"/>
<feBlend mode="normal" in2="BackgroundImageFix" result="effect1_dropShadow"/>
<feBlend mode="normal" in="SourceGraphic" in2="effect1_dropShadow" result="shape"/>
</filter>
</defs>
</svg>
