<svg width="40" height="40" viewBox="0 0 40 40" fill="none" xmlns="http://www.w3.org/2000/svg">
<path d="M25 30H15V31H25V30Z" fill="white"/>
<path d="M23 32H17V33H23V32Z" fill="white"/>
<path d="M20 9C22.4 9 24.7 10.1 26.3 12C28.7 14.9 28.7 19.1 26.3 22C26.2 22.1 26 22.4 25.7 22.6C24.7 23.6 23.3 25 23.1 27H17C16.7 25.1 15.3 23.6 14.4 22.6C14.2 22.4 13.9 22.1 13.8 22C11 18.6 11.6 13.5 15 10.8C16.4 9.6 18.2 9 20 9ZM20 7C17.8 7 15.6 7.7 13.8 9.2C9.50004 12.7 8.80004 18.9 12.2 23.3C13 24.2 15 25.7 15 27.6V29H25V27.6C25 25.7 27 24.2 27.8 23.2C30.7 19.5 30.7 14.4 27.8 10.7C25.8 8.3 22.9 7 20 7Z" fill="white"/>
<path d="M20.7001 19.8L19.1001 16.8L16.3001 19.4L15.7001 18.6L19.3001 15.2L20.9001 18.2L23.7001 15.6L24.3001 16.4L20.7001 19.8Z" fill="white"/>
</svg>
