<svg width="40" height="40" viewBox="0 0 40 40" fill="none" xmlns="http://www.w3.org/2000/svg">
<path d="M9 20.1V31H14V19H10C9.4 19 9 19.5 9 20.1ZM11 21H12V29H11V21Z" fill="white"/>
<path d="M27.9 19.2H25.9C24.7 19.2 24 18 24.5 17L26 14.3C26.7 13 26.3 11.4 25 10.5L24.6 10.2C24.4 10.1 24.1 10 23.8 10C23.4 10 22.9 10.2 22.6 10.5L15.7 18.4C15.3 18.9 15 19.6 15 20.3V31H26.4C27.8 31 29 30.1 29.4 28.8L30.9 22.9C31.4 21 29.9 19.2 27.9 19.2ZM29 22.3L27.5 28.2C27.4 28.6 27 28.9 26.5 28.9H17V20.2C17 20 17.1 19.8 17.2 19.6L23.9 12.1L24 12.2C24.4 12.5 24.5 13 24.3 13.4L22.9 16C22.3 17.1 22.3 18.3 23 19.4C23.6 20.5 24.8 21.1 26.1 21.1H28.1C28.5 21.1 28.8 21.3 29 21.5C28.9 21.8 29.1 22 29 22.3Z" fill="white"/>
</svg>
