<svg width="40" height="40" viewBox="0 0 40 40" fill="none" xmlns="http://www.w3.org/2000/svg">
<path d="M12 20V27H16V19H13C12.4 19 12 19.4 12 20ZM15 26H13V20H15V26Z" fill="white"/>
<path d="M25.9 19.1H24.5C23.7 19.1 23.2 18.3 23.6 17.7L24.6 15.9C25.1 15 24.8 13.9 23.9 13.4L23.6 13.2C23.5 13.1 23.3 13 23.1 13C22.8 13 22.5 13.1 22.3 13.3L17.5 18.6C17.2 18.9 17 19.4 17 19.8V27H24.8C25.8 27 26.6 26.4 26.8 25.5L27.9 21.6C28.3 20.3 27.3 19.1 25.9 19.1ZM27 21.3L25.9 25.2C25.8 25.6 25.3 26 24.8 26H18V19.8C18 19.6 18.1 19.4 18.2 19.2L23 14C23 14 23 14 23.1 14C23.1 14 23.1 14 23.2 14L23.5 14.2C23.8 14.5 24 15 23.7 15.4L22.7 17.2C22.4 17.8 22.4 18.5 22.7 19.1C23.1 19.7 23.7 20.1 24.5 20.1H25.9C26.3 20.1 26.6 20.3 26.8 20.5C26.9 20.7 27.1 21 27 21.3Z" fill="white"/>
</svg>
