<svg width="40" height="40" viewBox="0 0 40 40" fill="none" xmlns="http://www.w3.org/2000/svg">
<path d="M12 20V27H16V19H13C12.4 19 12 19.4 12 20Z" fill="white"/>
<path d="M25.9 19.0999H24.5C23.7 19.0999 23.2 18.2999 23.6 17.6999L24.6 15.8999C25.1 14.9999 24.8 13.8999 23.9 13.3999L23.6 13.1999C23.2 12.8999 22.5 12.9999 22.2 13.3999L17.5 18.5999C17.2 18.8999 17 19.3999 17 19.7999V26.9999H24.8C25.8 26.9999 26.6 26.3999 26.8 25.4999L27.9 21.5999C28.3 20.2999 27.3 19.0999 25.9 19.0999Z" fill="white"/>
</svg>
