<svg width="40" height="40" viewBox="0 0 40 40" fill="none" xmlns="http://www.w3.org/2000/svg">
<path d="M13.1 22C13.3 21 13.8 20.2 14.5 19.8C14.8 19.9 15.2 20 15.5 20C15.7 20 15.8 20 16 19.9C16 19.5 16.1 19.1 16.2 18.8C16 18.9 15.8 19 15.5 19C14.7 19 14 18.3 14 17.5C14 16.7 14.7 16 15.5 16C16.3 16 16.9 16.6 17 17.4C17.2 17.1 17.5 16.9 17.9 16.6C17.5 15.7 16.6 15 15.5 15C14.1 15 13 16.1 13 17.5C13 18.2 13.3 18.7 13.7 19.2C12.7 20 12 21.4 12 23H15.4C15.6 22.6 15.8 22.3 16 22H13.1Z" fill="white"/>
<path d="M22.3 21.9C22.7 21.4 23 20.7 23 20C23 18.3 21.7 17 20 17C18.3 17 17 18.3 17 20C17 20.7 17.3 21.4 17.7 21.9C16.7 22.8 16 24.3 16 26H24C24 24.3 23.3 22.8 22.3 21.9ZM20 18C21.1 18 22 18.9 22 20C22 21.1 21.1 22 20 22C18.9 22 18 21.1 18 20C18 18.9 18.9 18 20 18ZM17.1 25C17.3 24 17.8 23.1 18.5 22.6C18.9 22.8 19.4 23 20 23C20.6 23 21.1 22.8 21.5 22.6C22.2 23.1 22.7 24 22.9 25H17.1Z" fill="white"/>
<path d="M26.3 19.2C26.7 18.8 27 18.2 27 17.5C27 16.1 25.9 15 24.5 15C23.4 15 22.5 15.7 22.2 16.6C22.5 16.8 22.8 17.1 23.1 17.4C23.1 16.6 23.7 16 24.5 16C25.3 16 26 16.7 26 17.5C26 18.3 25.3 19 24.5 19C24.2 19 24 18.9 23.8 18.8C23.9 19.2 24 19.6 24 19.9C24.2 20 24.3 20 24.5 20C24.8 20 25.2 19.9 25.5 19.8C26.1 20.2 26.7 21 26.9 22H24C24.2 22.3 24.4 22.6 24.6 23H28C28 21.4 27.3 20 26.3 19.2Z" fill="white"/>
</svg>
