<svg width="44" height="44" viewBox="0 0 44 44" fill="none" xmlns="http://www.w3.org/2000/svg">
<path d="M22.7505 3H22.3481C17.7215 3 14 6.7 14 11.3V18.6C14 23.3 17.7215 27 22.3481 27H22.6499C27.2766 27 30.998 23.3 30.998 18.7V11.3C31.0986 6.7 27.3771 3 22.7505 3ZM22.3481 5H22.6499C26.2708 5 29.087 7.8 29.087 11.3V13H16.0116V11.3C16.0116 7.8 18.8278 5 22.3481 5ZM22.7505 25H22.3481C18.8278 25 16.0116 22.2 16.0116 18.7V15H29.087V18.7C29.087 22.2 26.2708 25 22.7505 25Z" fill="#242424"/>
<path d="M22.5492 11C23.3539 11 24.0579 10.3 24.0579 9.5V7.5C24.0579 6.7 23.3539 6 22.5492 6C21.7446 6 21.0405 6.7 21.0405 7.5V9.5C21.0405 10.3 21.7446 11 22.5492 11Z" fill="#242424"/>
<path d="M22.5493 32.5998L19.2301 29.2998L17.822 30.6998L22.5493 35.3998L27.2765 30.6998L25.8684 29.2998L22.5493 32.5998Z" fill="#242424"/>
<path d="M22.5493 37.5998L19.2301 34.2998L17.822 35.6998L22.5493 40.3998L27.2765 35.6998L25.8684 34.2998L22.5493 37.5998Z" fill="#242424"/>
</svg>
