<svg width="24" height="28" viewBox="0 0 24 28" fill="none" xmlns="http://www.w3.org/2000/svg">
<g id="Vector">
<path fill-rule="evenodd" clip-rule="evenodd" d="M3.98915 11.8106C3.98915 10.8009 4.14112 8.71456 5.2217 6.84912C6.34758 4.90548 8.425 3.30842 12 3.30842C15.575 3.30842 17.6524 4.90548 18.7783 6.84912C19.8589 8.71456 20.0108 10.8009 20.0108 11.8106C20.0108 13.6067 20.2562 14.8151 20.7962 15.8437C20.8888 16.0202 20.9646 16.1807 21.0308 16.3207L21.07 16.4035C21.1466 16.5646 21.2211 16.7163 21.325 16.899C21.534 17.2668 21.8825 17.7966 22.621 18.7441C23.2102 19.5 23.5242 20.4297 23.6933 21.1092C23.7804 21.4592 23.8348 21.7668 23.8677 21.9886C23.8842 22.0998 23.8955 22.1905 23.9027 22.2554C23.9064 22.2879 23.909 22.314 23.9109 22.333L23.913 22.3562L23.9137 22.3638L23.9139 22.3665L23.914 22.3676C23.914 22.3678 23.9141 22.3685 22.9587 22.4481L23.914 22.3676L24 23.4138H0L0.0859097 22.3685L1.04127 22.4481C0.0859097 22.3685 0.0858914 22.3687 0.0859097 22.3685L0.086077 22.3665L0.0863065 22.3638L0.0869656 22.3562L0.0891277 22.333C0.0909653 22.314 0.0936248 22.2879 0.0972652 22.2554C0.104541 22.1905 0.115775 22.0998 0.132276 21.9886C0.165158 21.7668 0.219579 21.4592 0.3067 21.1092C0.475818 20.4297 0.789757 19.5 1.37897 18.7441C2.11751 17.7966 2.46599 17.2668 2.67501 16.899C2.77886 16.7163 2.85344 16.5646 2.93 16.4035L2.96922 16.3207C3.03535 16.1807 3.1112 16.0201 3.20384 15.8437C3.74375 14.8151 3.98915 13.6067 3.98915 11.8106ZM21.8089 21.4825C21.6644 20.9354 21.4395 20.3555 21.1131 19.9367C20.3456 18.9521 19.9348 18.3401 19.6612 17.8586C19.5237 17.6168 19.426 17.417 19.3407 17.2376L19.2947 17.1404C19.2295 17.0024 19.1734 16.8838 19.1013 16.7464C18.3623 15.3387 18.0936 13.7828 18.0936 11.8106C18.0936 10.9362 17.9517 9.25425 17.1223 7.82245C16.3382 6.46885 14.8895 5.2397 12 5.2397C9.11044 5.2397 7.66175 6.46884 6.87766 7.82245C6.04827 9.25425 5.9064 10.9362 5.9064 11.8106C5.9064 13.7828 5.63769 15.3387 4.89872 16.7464C4.82661 16.8838 4.77052 17.0024 4.70529 17.1404L4.65926 17.2376C4.57397 17.417 4.47633 17.6168 4.33884 17.8586C4.06517 18.3401 3.65442 18.9521 2.88693 19.9367C2.56054 20.3555 2.33557 20.9354 2.19109 21.4825H21.8089Z" fill="white"/>
<path d="M14.7646 25.2116H9.22836C9.22836 26.1411 9.78199 28 11.9965 28C14.211 28 14.7646 26.1411 14.7646 25.2116Z" fill="white"/>
<path d="M10.5449 0.965638C10.5449 0.432331 10.9741 0 11.5035 0H12.4621C12.9915 0 13.4207 0.432331 13.4207 0.965638V3.86255C13.4207 4.39586 12.9915 4.82819 12.4621 4.82819H11.5035C10.9741 4.82819 10.5449 4.39586 10.5449 3.86255V0.965638Z" fill="white"/>
</g>
</svg>
