<svg width="40" height="40" viewBox="0 0 40 40" fill="none" xmlns="http://www.w3.org/2000/svg">
<path d="M20 14C15.6 14 12 16.9 12 20.5C12 24.1 15.6 27 20 27C24.4 27 28 24.1 28 20.5C28 16.9 24.4 14 20 14ZM20 26C16.1 26 13 23.5 13 20.5C13 17.5 16.1 15 20 15C23.9 15 27 17.5 27 20.5C27 23.5 23.9 26 20 26Z" fill="white"/>
<path d="M20 18C18.3 18 17 18.9 17 20C17 21.1 18.3 22 20 22C21.7 22 23 21.1 23 20C23 18.9 21.7 18 20 18ZM20 21C18.8 21 18 20.4 18 20C18 19.6 18.8 19 20 19C21.2 19 22 19.6 22 20C22 20.4 21.2 21 20 21Z" fill="white"/>
</svg>
