<svg width="40" height="40" viewBox="0 0 40 40" fill="none" xmlns="http://www.w3.org/2000/svg">
<path d="M20 22C21.3807 22 22.5 20.8807 22.5 19.5C22.5 18.1193 21.3807 17 20 17C18.6193 17 17.5 18.1193 17.5 19.5C17.5 20.8807 18.6193 22 20 22Z" fill="white"/>
<path d="M20 17.5C21.1 17.5 22 18.4 22 19.5C22 20.6 21.1 21.5 20 21.5C18.9 21.5 18 20.6 18 19.5C18 18.4 18.9 17.5 20 17.5ZM20 16.5C18.34 16.5 17 17.84 17 19.5C17 21.16 18.34 22.5 20 22.5C21.66 22.5 23 21.16 23 19.5C23 17.84 21.66 16.5 20 16.5Z" fill="white"/>
<path d="M20 15C23.04 15 25.78 16.79 26.93 19.5C25.78 22.21 23.04 24 20 24C16.96 24 14.22 22.21 13.07 19.5C14.22 16.79 16.96 15 20 15ZM20 14C16.3 14 13.17 16.3 12 19.5C13.17 22.7 16.3 25 20 25C23.7 25 26.83 22.7 28 19.5C26.83 16.3 23.7 14 20 14Z" fill="white"/>
</svg>
