<svg width="40" height="40" viewBox="0 0 40 40" fill="none" xmlns="http://www.w3.org/2000/svg">
<path d="M18.5 15.8C20 15.8 21.2 17 21.2 18.5C21.2 20 20 21.2 18.5 21.2C17 21.2 15.8 20 15.8 18.5C15.8 17 17 15.8 18.5 15.8ZM18.5 15C16.6 15 15 16.6 15 18.5C15 20.4 16.6 22 18.5 22C20.4 22 22 20.4 22 18.5C22 16.6 20.4 15 18.5 15Z" fill="white"/>
<path d="M19 12H18V14H19V12Z" fill="white"/>
<path d="M22.7426 13.5348L21.3284 14.949L22.0355 15.6561L23.4497 14.2419L22.7426 13.5348Z" fill="white"/>
<path d="M14.9644 21.3438L13.5502 22.758L14.2573 23.4651L15.6715 22.0509L14.9644 21.3438Z" fill="white"/>
<path d="M14 18H12V19H14V18Z" fill="white"/>
<path d="M14.2419 13.5502L13.5348 14.2573L14.949 15.6715L15.6561 14.9644L14.2419 13.5502Z" fill="white"/>
<path d="M26 21.3V22.2C26.7 22.7 27.2 23.5 27.2 24.4C27.2 25.9 26 27.1 24.5 27.1C23.6 27.1 22.7 26.6 22.3 25.9H21.3C21.9 27.1 23.1 27.9 24.5 27.9C26.4 27.9 28 26.3 28 24.4C28 23.1 27.2 21.9 26 21.3Z" fill="white"/>
<path d="M23 18.3V19.2C23.7 19.7 24.2 20.5 24.2 21.4C24.2 22.9 23 24.1 21.5 24.1C20.6 24.1 19.7 23.6 19.3 22.9H18.5H18.3C18.9 24.1 20.1 24.9 21.5 24.9C23.4 24.9 25 23.3 25 21.4C25 20.1 24.2 18.9 23 18.3Z" fill="white"/>
</svg>
