<svg width="40" height="40" viewBox="0 0 40 40" fill="none" xmlns="http://www.w3.org/2000/svg">
<path d="M27 16V26H13V16H27ZM28 15H12V27H28V15Z" fill="white"/>
<path d="M20 23.5C21.3807 23.5 22.5 22.3807 22.5 21C22.5 19.6193 21.3807 18.5 20 18.5C18.6193 18.5 17.5 19.6193 17.5 21C17.5 22.3807 18.6193 23.5 20 23.5Z" fill="white"/>
<path d="M20 19C21.1 19 22 19.9 22 21C22 22.1 21.1 23 20 23C18.9 23 18 22.1 18 21C18 19.9 18.9 19 20 19ZM20 18C18.34 18 17 19.34 17 21C17 22.66 18.34 24 20 24C21.66 24 23 22.66 23 21C23 19.34 21.66 18 20 18Z" fill="white"/>
<path d="M23 13H17V14H23V13Z" fill="white"/>
<path d="M23 13H17V14H23V13Z" fill="white"/>
</svg>
