<svg width="40" height="40" viewBox="0 0 40 40" fill="none" xmlns="http://www.w3.org/2000/svg">
<path d="M24 18H16.04V16.1C16.04 14.37 17.81 12.97 20 12.97C21.92 12.97 23.52 14.06 23.88 15.5H24.93C24.57 13.52 22.5 12 20 12C17.24 12 15 13.84 15 16.1V18.27C14.41 18.63 14 19.27 14 20V25C14 26.1 14.9 27 16 27H24C25.1 27 26 26.1 26 25V20C26 18.9 25.1 18 24 18ZM25 25C25 25.55 24.55 26 24 26H16C15.45 26 15 25.55 15 25V20C15 19.45 15.45 19 16 19H16.04H24C24.55 19 25 19.45 25 20V25Z" fill="white"/>
</svg>
