<svg width="40" height="40" viewBox="0 0 40 40" fill="none" xmlns="http://www.w3.org/2000/svg">
<path d="M24 19C24.55 19 25 19.45 25 20V25C25 25.55 24.55 26 24 26H16C15.45 26 15 25.55 15 25V20C15 19.45 15.45 19 16 19H24ZM24 18H16C14.9 18 14 18.9 14 20V25C14 26.1 14.9 27 16 27H24C25.1 27 26 26.1 26 25V20C26 18.9 25.1 18 24 18Z" fill="white"/>
<path d="M25 19H23.96V16.1C23.96 14.37 22.19 12.97 20 12.97C17.81 12.97 16.04 14.38 16.04 16.1V19H15V16.1C15 13.84 17.24 12 20 12C22.76 12 25 13.84 25 16.1V19Z" fill="white"/>
</svg>
