<svg width="40" height="40" viewBox="0 0 40 40" fill="none" xmlns="http://www.w3.org/2000/svg">
<path d="M23 22H17V26H23V22Z" fill="white"/>
<path d="M22 27H18V28H22V27Z" fill="white"/>
<path d="M20 12C16.69 12 14 14.69 14 18C14 21.31 16.69 24 20 24C23.31 24 26 21.31 26 18C26 14.69 23.31 12 20 12ZM17.03 14C17.86 13.38 18.88 13 20 13C21.12 13 22.14 13.38 22.97 14H17.03ZM15.1 17C15.25 16.26 15.58 15.58 16.02 15H23.97C24.41 15.58 24.74 16.26 24.89 17H15.1ZM15.42 20C15.15 19.39 15 18.71 15 18H25C25 18.71 24.85 19.39 24.58 20H15.42ZM20 23C18.37 23 16.94 22.21 16.03 21H23.98C23.06 22.21 21.63 23 20 23Z" fill="white"/>
</svg>
