<svg width="40" height="40" viewBox="0 0 40 40" fill="none" xmlns="http://www.w3.org/2000/svg">
<path d="M23 22.3L20.4 19.6L19.6 20.4L22.3 23H21V24H24V21H23V22.3Z" fill="white"/>
<path d="M27 17V18.3L24.4 15.6L23.6 16.4L26.3 19H25V20H28V17H27Z" fill="white"/>
<path d="M19 26.3L16.4 23.6L15.6 24.4L18.3 27H17V28H20V25H19V26.3Z" fill="white"/>
<path d="M20 15H19V16H20V15Z" fill="white"/>
<path d="M18.2883 17.621L17.5812 18.3281L18.2883 19.0352L18.9954 18.3281L18.2883 17.621Z" fill="white"/>
<path d="M16 19H15V20H16V19Z" fill="white"/>
<path d="M12.6718 17.5813L11.9647 18.2884L12.6718 18.9955L13.3789 18.2884L12.6718 17.5813Z" fill="white"/>
<path d="M12 15H11V16H12V15Z" fill="white"/>
<path d="M12.7116 11.9648L12.0045 12.6719L12.7116 13.379L13.4187 12.6719L12.7116 11.9648Z" fill="white"/>
<path d="M16 11H15V12H16V11Z" fill="white"/>
<path d="M18.3281 12.0045L17.621 12.7116L18.3281 13.4187L19.0352 12.7116L18.3281 12.0045Z" fill="white"/>
<path d="M18 15.5C18 14.1 16.9 13 15.5 13C14.1 13 13 14.1 13 15.5C13 16.9 14.1 18 15.5 18C16.9 18 18 16.9 18 15.5ZM14 15.5C14 14.7 14.7 14 15.5 14C16.3 14 17 14.7 17 15.5C17 16.3 16.3 17 15.5 17C14.7 17 14 16.3 14 15.5Z" fill="white"/>
</svg>
