<svg width="40" height="40" viewBox="0 0 40 40" fill="none" xmlns="http://www.w3.org/2000/svg">
<path d="M13 12H12V13H13V12Z" fill="white"/>
<path d="M16 12H15V13H16V12Z" fill="white"/>
<path d="M19 12H18V13H19V12Z" fill="white"/>
<path d="M22 12H21V13H22V12Z" fill="white"/>
<path d="M25 12H24V13H25V12Z" fill="white"/>
<path d="M28 12H27V13H28V12Z" fill="white"/>
<path d="M13 15H12V16H13V15Z" fill="white"/>
<path d="M16 15H15V16H16V15Z" fill="white"/>
<path d="M19 15H18V16H19V15Z" fill="white"/>
<path d="M22 15H21V16H22V15Z" fill="white"/>
<path d="M25 15H24V16H25V15Z" fill="white"/>
<path d="M28 15H27V16H28V15Z" fill="white"/>
<path d="M13 18H12V19H13V18Z" fill="white"/>
<path d="M16 18H15V19H16V18Z" fill="white"/>
<path d="M19 18H18V19H19V18Z" fill="white"/>
<path d="M22 18H21V19H22V18Z" fill="white"/>
<path d="M25 18H24V19H25V18Z" fill="white"/>
<path d="M28 18H27V19H28V18Z" fill="white"/>
<path d="M13 21H12V22H13V21Z" fill="white"/>
<path d="M16 21H15V22H16V21Z" fill="white"/>
<path d="M19 21H18V22H19V21Z" fill="white"/>
<path d="M22 21H21V22H22V21Z" fill="white"/>
<path d="M25 21H24V22H25V21Z" fill="white"/>
<path d="M28 21H27V22H28V21Z" fill="white"/>
<path d="M13 24H12V25H13V24Z" fill="white"/>
<path d="M16 24H15V25H16V24Z" fill="white"/>
<path d="M19 24H18V25H19V24Z" fill="white"/>
<path d="M22 24H21V25H22V24Z" fill="white"/>
<path d="M25 24H24V25H25V24Z" fill="white"/>
<path d="M28 24H27V25H28V24Z" fill="white"/>
<path d="M13 27H12V28H13V27Z" fill="white"/>
<path d="M16 27H15V28H16V27Z" fill="white"/>
<path d="M19 27H18V28H19V27Z" fill="white"/>
<path d="M22 27H21V28H22V27Z" fill="white"/>
<path d="M25 27H24V28H25V27Z" fill="white"/>
<path d="M28 27H27V28H28V27Z" fill="white"/>
</svg>
