<svg width="40" height="40" viewBox="0 0 40 40" fill="none" xmlns="http://www.w3.org/2000/svg">
<path d="M20 22.1H18.9V28H20V22.1Z" fill="white"/>
<path d="M15 25.7L14 25.2L16.4 21.1L17.3 21.6L15 25.7Z" fill="white"/>
<path d="M24 25.7L21.7 21.6L22.6 21.1L25 25.2L24 25.7Z" fill="white"/>
<path d="M19.5 13.8L22.4 18.1C22.2 18.7 21.5 19.8 19.5 19.8C17.5 19.8 16.8 18.6 16.6 18.1L19.5 13.8ZM19.5 12L15.6 17.9C15.6 18.7 16.6 20.8 19.5 20.8C22.4 20.8 23.4 18.7 23.4 17.9L19.5 12Z" fill="white"/>
</svg>
