<svg width="94" height="68" viewBox="0 0 94 68" fill="none" xmlns="http://www.w3.org/2000/svg">
<g filter="url(#filter0_d)">
<g clip-path="url(#clip0)">
<path d="M47 17.5C30.5 17.5 17.3 14.2 17.3 14.2V53.7999C17.3 53.7999 30.5 50.4999 47 50.4999C63.5 50.4999 76.7 53.7999 76.7 53.7999V14.2C76.7 14.2 63.5 17.5 47 17.5ZM20.6 18.16C22.91 18.49 26.54 19.15 30.5 19.81V48.1899C26.54 48.5199 22.91 49.1799 20.6 49.8399V18.16ZM33.8 47.8599V20.14C37.76 20.47 42.38 20.8 47 20.8C51.62 20.8 56.24 20.47 60.2 20.14V47.8599C56.24 47.5299 51.62 47.1999 47 47.1999C42.38 47.1999 37.76 47.5299 33.8 47.8599ZM73.4 49.8399C71.09 49.5099 67.46 48.8499 63.5 48.1899V19.81C67.46 19.48 71.09 18.82 73.4 18.16V49.8399Z" fill="white"/>
</g>
</g>
<defs>
<filter id="filter0_d" x="-2" y="-2" width="98" height="72" filterUnits="userSpaceOnUse" color-interpolation-filters="sRGB">
<feFlood flood-opacity="0" result="BackgroundImageFix"/>
<feColorMatrix in="SourceAlpha" type="matrix" values="0 0 0 0 0 0 0 0 0 0 0 0 0 0 0 0 0 0 127 0"/>
<feOffset/>
<feGaussianBlur stdDeviation="1"/>
<feColorMatrix type="matrix" values="0 0 0 0 0 0 0 0 0 0 0 0 0 0 0 0 0 0 0.7 0"/>
<feBlend mode="normal" in2="BackgroundImageFix" result="effect1_dropShadow"/>
<feBlend mode="normal" in="SourceGraphic" in2="effect1_dropShadow" result="shape"/>
</filter>
<clipPath id="clip0">
<rect width="59.4" height="39.6" fill="white" transform="translate(17.3 14.2)"/>
</clipPath>
</defs>
</svg>
