<svg width="95" height="95" viewBox="0 0 95 95" fill="none" xmlns="http://www.w3.org/2000/svg">
<path d="M28.5 68.875H66.5C66.5 61.0375 62.7 54.3875 57.2375 50.5875C59.85 47.975 61.75 44.4125 61.75 40.375C61.75 32.5375 55.3375 26.125 47.5 26.125C39.6625 26.125 33.25 32.5375 33.25 40.375C33.25 44.4125 34.9125 47.975 37.7625 50.5875C32.3 54.3875 28.5 61.0375 28.5 68.875ZM35.625 40.375C35.625 33.725 40.85 28.5 47.5 28.5C54.15 28.5 59.375 33.725 59.375 40.375C59.375 47.025 54.15 52.25 47.5 52.25C40.85 52.25 35.625 47.025 35.625 40.375ZM39.6625 52.25C42.0375 53.675 44.65 54.625 47.5 54.625C50.35 54.625 53.2 53.675 55.3375 52.25C59.85 55.1 63.175 60.325 63.8875 66.5H31.1125C31.5875 60.325 34.9125 55.1 39.6625 52.25Z" fill="#878787"/>
</svg>
