<svg width="40" height="40" viewBox="0 0 40 40" fill="none" xmlns="http://www.w3.org/2000/svg">
<path d="M32 28.9999H8C7.45 28.9999 7 28.5499 7 27.9999V12C7 11.45 7.45 11 8 11H22C22.55 11 23 10.55 23 10C23 9.45 22.55 9 22 9L7 9C5.89 9 5 9.9 5 11V28.9999C5 30.0999 5.9 30.9999 7 30.9999H33C34.1 30.9999 35 30.0999 35 28.9999V21C35 20.45 34.55 20 34 20C33.45 20 33 20.45 33 21V27.9999C33 28.5499 32.55 28.9999 32 28.9999ZM27 10C27 10.55 27.45 11 28 11H31.59L28 14.09C27.61 14.48 27.61 15.11 28 15.5C28.39 15.89 29.02 15.89 29.41 15.5L33 12.41V16C33 16.55 33.45 17 34 17C34.55 17 35 16.55 35 16V9H28C27.45 9 27 9.45 27 10Z" fill="white"/>
<path d="M17 15.6269V24.3731C17 24.8853 17.4971 25.1852 17.8462 24.8728L22.7858 20.4998C23.0714 20.2499 23.0714 19.7501 22.7858 19.5002L17.8462 15.1272C17.4971 14.8148 17 15.1147 17 15.6269Z" fill="white"/>
</svg>
