<svg width="40" height="40" viewBox="0 0 40 40" fill="none" xmlns="http://www.w3.org/2000/svg">
<path d="M17.9007 21H13.0993C12.4922 21 12 21.4922 12 22.0993V26.9007C12 27.5078 12.4922 28 13.0993 28H17.9007C18.5078 28 19 27.5078 19 26.9007V22.0993C19 21.4922 18.5078 21 17.9007 21Z" fill="white"/>
<path d="M17.9007 12H13.0993C12.4922 12 12 12.4922 12 13.0993V17.9007C12 18.5078 12.4922 19 13.0993 19H17.9007C18.5078 19 19 18.5078 19 17.9007V13.0993C19 12.4922 18.5078 12 17.9007 12Z" fill="white"/>
<path d="M28 26.9097V22.1014C28.0002 21.9568 27.9719 21.8137 27.9168 21.68C27.8616 21.5464 27.7807 21.425 27.6786 21.3227C27.5765 21.2204 27.4552 21.1392 27.3217 21.0839C27.1883 21.0285 27.0452 21 26.9007 21H21.9545C21.7014 21 21.4586 21.1006 21.2796 21.2797C21.1006 21.4588 21 21.7017 21 21.955V26.9002C21 27.1919 21.1158 27.4716 21.322 27.6779C21.5281 27.8841 21.8078 28 22.0993 28H26.9007C27.1906 28 27.4688 27.8854 27.6747 27.6813C27.8806 27.4771 27.9975 27.1998 28 26.9097Z" fill="white"/>
<path d="M26.9007 12H22.0993C21.4922 12 21 12.4922 21 13.0993V17.9007C21 18.5078 21.4922 19 22.0993 19H26.9007C27.5078 19 28 18.5078 28 17.9007V13.0993C28 12.4922 27.5078 12 26.9007 12Z" fill="white"/>
<path d="M31.004 7H22V9H29.984C30.5363 9 30.984 9.44772 30.984 10V18H33V8.99C32.9974 8.4613 32.7859 7.95516 32.4119 7.58225C32.0378 7.20933 31.5316 6.99999 31.004 7Z" fill="white"/>
<path d="M31.004 33H22V31H29.984C30.5363 31 30.984 30.5523 30.984 30V22H33V31.01C32.9974 31.5387 32.7859 32.0448 32.4119 32.4178C32.0378 32.7907 31.5316 33 31.004 33Z" fill="white"/>
<path d="M8.99601 7H18V9H10.016C9.46368 9 9.01597 9.44772 9.01597 10V18H7V8.99C7.00264 8.4613 7.21409 7.95516 7.58813 7.58225C7.96217 7.20933 8.46836 6.99999 8.99601 7Z" fill="white"/>
<path d="M8.99601 33H18V31H10.016C9.46368 31 9.01597 30.5523 9.01597 30V22H7V31.01C7.00264 31.5387 7.21409 32.0448 7.58813 32.4178C7.96217 32.7907 8.46836 33 8.99601 33Z" fill="white"/>
</svg>
