<svg width="40" height="40" viewBox="0 0 40 40" fill="none" xmlns="http://www.w3.org/2000/svg">
<path d="M19.0011 5C19.0011 4.44772 19.4489 4 20.0011 4C20.5534 4 21.0011 4.44772 21.0011 5V7C21.0011 7.55229 20.5534 8 20.0011 8C19.4489 8 19.0011 7.55229 19.0011 7V5Z" fill="white"/>
<path d="M19.0011 10C19.0011 9.44771 19.4489 9 20.0011 9C20.5534 9 21.0011 9.44771 21.0011 10V12C21.0011 12.5523 20.5534 13 20.0011 13C19.4489 13 19.0011 12.5523 19.0011 12V10Z" fill="white"/>
<path fill-rule="evenodd" clip-rule="evenodd" d="M29.0011 20V28.0565C29.0011 28.8099 28.6986 29.6338 28.0011 30L21.0011 34.13C20.6524 34.3183 20.3949 34.4125 20.0011 34.4125C19.6074 34.4125 19.3499 34.3183 19.0011 34.13L12.0012 30C11.3037 29.6338 11.0012 28.8099 11.0012 28.0565V20C11.0012 19.2466 11.3037 18.3767 12.0012 18L18.8762 14.2825C19.2249 14.0942 19.6074 14 20.0011 14C20.3949 14 20.7774 14.0942 21.1261 14.2825L28.0011 18C28.6986 18.3662 29.0011 19.2466 29.0011 20ZM13.0012 28L19.0011 31.5V24.2008L13.0012 21V28ZM14.3444 19L20.0011 22L25.7172 19L20.0011 16L14.3444 19ZM21.0011 31.5L27.0011 28V21L21.0011 24.2008V31.5Z" fill="white"/>
<path d="M10.0629 30.5629L10 30.5C9.65596 30.1561 9.11441 30.1097 8.71686 30.39L7.40608 31.3392C6.96821 31.6479 6.85143 32.2469 7.14126 32.6975L7.18499 32.7654C7.49232 33.2432 8.13549 33.3694 8.6005 33.043L9.93048 32.0887C10.4391 31.7317 10.5024 31.0022 10.0629 30.5629Z" fill="white"/>
<path d="M3.00119 34.9938L3.00813 35.1364C3.04604 35.915 3.97154 36.2369 4.61751 35.8004L6.16433 34.7852C6.62533 34.4737 6.74345 33.8458 6.42716 33.3881L6.37321 33.31C6.06433 32.863 5.45504 32.7444 5.00107 33.043L3.45055 34.1097C3.15487 34.3041 2.98398 34.6404 3.00119 34.9938Z" fill="white"/>
<path d="M30 30.5L29.9371 30.5629C29.4976 31.0022 29.5609 31.7317 30.0695 32.0887L31.3995 33.043C31.8645 33.3694 32.5077 33.2432 32.815 32.7654L32.8587 32.6975C33.1486 32.2469 33.0318 31.6479 32.5939 31.3392L31.2831 30.39C30.8856 30.1097 30.344 30.1561 30 30.5Z" fill="white"/>
<path d="M36.9988 34.9938L36.9919 35.1363C36.954 35.915 36.0285 36.2369 35.3825 35.8004L33.8357 34.7852C33.3747 34.4737 33.2565 33.8458 33.5728 33.3881L33.6268 33.31C33.9357 32.863 34.545 32.7444 34.9989 33.043L36.5495 34.1097C36.8451 34.3041 37.016 34.6404 36.9988 34.9938Z" fill="white"/>
</svg>
