<svg width="40" height="40" viewBox="0 0 40 40" fill="none" xmlns="http://www.w3.org/2000/svg">
<path d="M14.5 17C15.3 17 16 17.7 16 18.5C16 19.3 15.3 20 14.5 20C13.7 20 13 19.3 13 18.5C13 17.7 13.7 17 14.5 17ZM14.5 16C13.1 16 12 17.1 12 18.5C12 19.9 13.1 21 14.5 21C15.9 21 17 19.9 17 18.5C17 17.1 15.9 16 14.5 16Z" fill="white"/>
<path d="M25.5 15C26.3 15 27 15.7 27 16.5C27 17.3 26.3 18 25.5 18C24.7 18 24 17.3 24 16.5C24 15.7 24.7 15 25.5 15ZM25.5 14C24.1 14 23 15.1 23 16.5C23 17.9 24.1 19 25.5 19C26.9 19 28 17.9 28 16.5C28 15.1 26.9 14 25.5 14Z" fill="white"/>
<path d="M20.5 23C21.3 23 22 23.7 22 24.5C22 25.3 21.3 26 20.5 26C19.7 26 19 25.3 19 24.5C19 23.7 19.7 23 20.5 23ZM20.5 22C19.1 22 18 23.1 18 24.5C18 25.9 19.1 27 20.5 27C21.9 27 23 25.9 23 24.5C23 23.1 21.9 22 20.5 22Z" fill="white"/>
</svg>
