<svg width="24" height="24" viewBox="0 0 24 24" fill="none" xmlns="http://www.w3.org/2000/svg">
<path d="M15.7 13.5L16.6 13.9C16.7 13.6 16.8 13.3 16.9 12.9L15.9 12.7C15.9 13 15.8 13.2 15.7 13.5Z" fill="white"/>
<path d="M14.8 14.9L15.6 15.6C15.8 15.3 16 15 16.2 14.7L15.3 14.2C15.2 14.5 15 14.7 14.8 14.9Z" fill="white"/>
<path d="M17 11.3C17 11 16.9 10.6 16.8 10.3L15.8 10.6C15.9 10.9 15.9 11.1 16 11.4L17 11.3Z" fill="white"/>
<path d="M12 16.3L12.1 17.3C12.4 17.3 12.8 17.2 13.1 17.1L12.8 16.1C12.6 16.3 12.3 16.3 12 16.3Z" fill="white"/>
<path d="M13.6 15.9L14 16.8C14.3 16.6 14.6 16.5 14.8 16.3L14.3 15.4C14 15.6 13.8 15.7 13.6 15.9Z" fill="white"/>
<path d="M11.5 7.4C12 7.4 12.6 7.5 13.1 7.7L12.5 8.6L15 8.4L14 6L13.6 6.8C12.9 6.5 12.2 6.4 11.5 6.4C8.5 6.4 6 8.8 6 11.9C6 14.8 8.2 17.1 11 17.4V16.4C8.8 16.1 7 14.3 7 12C7 9.4 9 7.4 11.5 7.4Z" fill="white"/>
</svg>
