<svg width="40" height="40" viewBox="0 0 40 40" fill="none" xmlns="http://www.w3.org/2000/svg">
<path d="M29.3892 24.2992L31.2971 25.0157C31.5984 24.2992 31.7992 23.5826 31.8996 22.8661L29.8913 22.4567C29.7908 23.1732 29.6904 23.7874 29.3892 24.2992Z" fill="white"/>
<path d="M27.5815 27.4724L29.0878 28.8032C29.5899 28.2913 29.9916 27.6772 30.3933 26.9606L28.6861 25.937C28.2845 26.5512 27.9832 27.063 27.5815 27.4724Z" fill="white"/>
<path d="M31.9999 19.3858C31.8995 18.6693 31.7991 17.9527 31.5983 17.2362L29.6903 17.8504C29.8911 18.4646 29.9916 19.0787 30.092 19.6929L31.9999 19.3858Z" fill="white"/>
<path d="M24.6694 29.7244L25.5732 31.5669C26.1757 31.2598 26.8786 30.8503 27.3807 30.3385L26.1757 28.7007C25.774 29.1102 25.2719 29.5196 24.6694 29.7244Z" fill="white"/>
<path d="M21.2552 30.8504L21.4561 32.8977C22.159 32.7953 22.8619 32.6929 23.5649 32.4882L22.9624 30.5433C22.4603 30.6457 21.8578 30.7481 21.2552 30.8504Z" fill="white"/>
<path d="M20.0502 10.4803C21.2552 10.4803 22.4603 10.685 23.5649 11.0945L22.4603 12.937L28.0837 12.5276L25.8745 7L24.569 9.35433C23.1632 8.74016 21.6569 8.43307 20.0502 8.43307C13.4226 8.43307 8 13.9606 8 20.7165C8 27.4724 13.4226 33 20.0502 33V30.9528C14.5272 30.9528 10.0084 26.3465 10.0084 20.7165C10.0084 15.0866 14.5272 10.4803 20.0502 10.4803Z" fill="white"/>
</svg>
