<svg width="40" height="40" viewBox="0 0 40 40" fill="none" xmlns="http://www.w3.org/2000/svg">
<path d="M25.6 22.566L26.5 22.8679C26.6 22.4654 26.7 22.0629 26.8 21.5597L25.8 21.3585C25.8 21.8616 25.7 22.2642 25.6 22.566Z" fill="white"/>
<path d="M27 20.3522C27 19.9497 27 19.4465 26.9 19.044L25.9 19.2453C25.9 19.6478 26 19.9497 26 20.3522H27Z" fill="white"/>
<path d="M24.5 24.5786L25.3 25.1824C25.6 24.8805 25.8 24.478 26 24.0755L25.1 23.5723C25 23.9748 24.8 24.2767 24.5 24.5786Z" fill="white"/>
<path d="M22.8 25.9874L23.3 26.8931C23.7 26.6918 24 26.3899 24.3 26.0881L23.6 25.283C23.5 25.5849 23.2 25.8868 22.8 25.9874Z" fill="white"/>
<path d="M20.8 26.8931L21 27.8994C21.4 27.7987 21.8 27.6981 22.2 27.4969L21.8 26.5912C21.5 26.6918 21.1 26.7925 20.8 26.8931Z" fill="white"/>
<path d="M13 20.4528C13 16.8302 15.9 13.9119 19.5 13.9119C20.4 13.9119 21.2 14.1132 21.9 14.4151L21 15.9245H25L23.4 12L22.5 13.5094C21.6 13.1069 20.6 12.9057 19.5 12.9057C15.4 12.9057 12 16.2264 12 20.4528C12 24.6792 15.4 28 19.5 28C19.7 28 19.8 28 20 28V26.9937C19.8 26.9937 19.7 26.9937 19.5 26.9937C15.9 26.9937 13 24.0755 13 20.4528Z" fill="white"/>
</svg>
