<svg width="120" height="120" viewBox="0 0 120 120" fill="none" xmlns="http://www.w3.org/2000/svg">
<path d="M56.4 31.7C47.5 33.4 39.4 38.2 33.6 45.2C32.7 46.3 32.8 47.8 33.9 48.7C34.4 49.1 34.9 49.3 35.5 49.3C36.2 49.3 36.9 49 37.4 48.4C42.5 42.3 49.6 38.1 57.4 36.6C58.8 36.3 59.6 35 59.4 33.7C59.1 32.3 57.8 31.4 56.4 31.7Z" fill="white"/>
<path d="M32.2 51.2C31 50.6 29.5 51 28.8 52.2C27.9 53.9 27.1 55.7 26.5 57.5C26 58.8 26.7 60.2 28 60.7C28.3 60.8 28.6 60.8 28.8 60.8C29.8 60.8 30.8 60.2 31.2 59.1C31.8 57.5 32.4 56 33.2 54.5C33.9 53.3 33.4 51.8 32.2 51.2Z" fill="white"/>
<path d="M89.3 39.7C82 30.8 70.9 25 58.5 25C37.5 25 20.4 41.4 19.1 62C12.2 68 8.79999 74.1 10.4 79.3C12 84.6 18.4 87.9 27.6 89C34.8 98.1 46 104 58.5 104C78.6 104 95.1 89 97.6 69.7C106.6 63 111.3 55.8 109.6 49.9C107.9 44 100.2 40.5 89.3 39.7ZM15.2 77.9C14.5 75.7 16 72.5 19.3 68.9C19.9 74.1 21.4 79 23.8 83.3C18.6 82 15.8 79.9 15.2 77.9ZM58.5 99C49.3 99 41 95.4 34.8 89.5C35.1 89.5 35.3 89.5 35.6 89.5C44.5 89.5 55.1 87.9 66 84.7C75.9 81.8 84.7 77.9 91.8 73.6C87.8 88.2 74.4 99 58.5 99ZM92.9 66.9C85.4 72.1 75.5 76.6 64.5 79.9C54.3 82.9 44.3 84.5 35.5 84.5C33.6 84.5 31.9 84.4 30.2 84.3C26.3 78.7 24 71.9 24 64.5C24 62.2 24.2 60 24.7 57.8C27.8 42 41.8 30 58.5 30C67.7 30 76.2 33.7 82.4 39.6C83.1 40.3 84.5 41.8 84.5 41.8C85.3 42.7 86 43.6 86.7 44.6C90.7 50.2 93 57.1 93 64.5C93 65.3 93 66.1 92.9 66.9ZM98 63C97.8 56.5 96 50.5 93 45.2C100.2 46.3 104.2 48.8 104.9 51.3C105.7 54.1 103.1 58.5 98 63Z" fill="white"/>
<path d="M99 33C105.1 33 110 28.1 110 22C110 15.9 105.1 11 99 11C92.9 11 88 15.9 88 22C88 28.1 92.9 33 99 33ZM99 16C102.3 16 105 18.7 105 22C105 25.3 102.3 28 99 28C95.7 28 93 25.3 93 22C93 18.7 95.7 16 99 16Z" fill="white"/>
<path d="M78.5 21C82.1 21 85 18.1 85 14.5C85 10.9 82.1 8 78.5 8C74.9 8 72 10.9 72 14.5C72 18.1 74.9 21 78.5 21ZM78.5 13C79.3 13 80 13.7 80 14.5C80 15.3 79.3 16 78.5 16C77.7 16 77 15.3 77 14.5C77 13.7 77.7 13 78.5 13Z" fill="white"/>
</svg>
