<svg width="180" height="120" viewBox="0 0 180 120" fill="none" xmlns="http://www.w3.org/2000/svg">
<path d="M7.5 64H0V41.5H7.5V34H22.5V41.5H30V64H22.5V71.5H7.5V64ZM22.5 64V41.5H7.5V64H22.5Z" fill="white"/>
<path d="M45 64H37.5V49H45V41.5H60V49H67.5V64H60V71.5H45V64ZM60 64V49H45V64H60Z" fill="white"/>
<path d="M82.5 64H75V49H82.5V41.5H97.5V49H105V64H97.5V71.5H82.5V64ZM97.5 64V49H82.5V64H97.5Z" fill="white"/>
<path d="M135 49H142.5V64H135V71.5H120V86.5H112.5V41.5H135V49ZM120 64H135V49H120V64Z" fill="white"/>
<path d="M180 41.5V49H165V56.5H150V49H157.5V41.5H180ZM165 64V56.5H180V64H172.5V71.5H150V64H165Z" fill="white"/>
</svg>
