<svg width="40" height="40" viewBox="0 0 40 40" fill="none" xmlns="http://www.w3.org/2000/svg">
<g filter="url(#filter0_d)">
<path d="M17 27H11C10.45 27 10 26.55 10 26V14C10 13.45 10.45 13 11 13H29C29.55 13 30 13.45 30 14V16H32V14C32 12.34 30.66 11 29 11H11C9.34 11 8 12.34 8 14V26C8 27.66 9.34 29 11 29H17V27Z" fill="white"/>
<path d="M32 29C32 21.5 27.27 21.58 25 21.5V17L17 23L25 29V24.5C26.76 24.47 30.5 24.5 32 29Z" fill="white"/>
</g>
<defs>
<filter id="filter0_d" x="-2" y="-2" width="44" height="44" filterUnits="userSpaceOnUse" color-interpolation-filters="sRGB">
<feFlood flood-opacity="0" result="BackgroundImageFix"/>
<feColorMatrix in="SourceAlpha" type="matrix" values="0 0 0 0 0 0 0 0 0 0 0 0 0 0 0 0 0 0 127 0"/>
<feOffset/>
<feGaussianBlur stdDeviation="1"/>
<feColorMatrix type="matrix" values="0 0 0 0 0 0 0 0 0 0 0 0 0 0 0 0 0 0 0.7 0"/>
<feBlend mode="normal" in2="BackgroundImageFix" result="effect1_dropShadow"/>
<feBlend mode="normal" in="SourceGraphic" in2="effect1_dropShadow" result="shape"/>
</filter>
</defs>
</svg>
