<svg width="40" height="40" viewBox="0 0 40 40" fill="none" xmlns="http://www.w3.org/2000/svg">
<g filter="url(#filter0_d)">
<g clip-path="url(#clip0)">
<path d="M25.5 16.0699L19 19.0699V27.0699L25.5 30.9299L32 27.0699V19.0699L25.5 16.0699ZM25.5 17.1699L30.43 19.4499L25.5 22.4899L20.57 19.4499L25.5 17.1699ZM20.45 26.7699L20 26.4999V25.8699V20.2699L24.55 23.0699L25 23.3499V23.9599V29.4599L20.45 26.7699ZM26 29.4699V23.9699V23.3499L26.45 23.0699L31 20.2699V25.8699V26.4999L30.55 26.7699L26 29.4699Z" fill="white"/>
<path d="M17 26H11C10.45 26 10 25.55 10 25V13C10 12.45 10.45 12 11 12H29C29.55 12 30 12.45 30 13V15H32V13C32 11.34 30.66 10 29 10H11C9.34 10 8 11.34 8 13V25C8 26.66 9.34 28 11 28H17V26Z" fill="white"/>
</g>
</g>
<defs>
<filter id="filter0_d" x="-2" y="-2" width="44" height="44" filterUnits="userSpaceOnUse" color-interpolation-filters="sRGB">
<feFlood flood-opacity="0" result="BackgroundImageFix"/>
<feColorMatrix in="SourceAlpha" type="matrix" values="0 0 0 0 0 0 0 0 0 0 0 0 0 0 0 0 0 0 127 0"/>
<feOffset/>
<feGaussianBlur stdDeviation="1"/>
<feColorMatrix type="matrix" values="0 0 0 0 0 0 0 0 0 0 0 0 0 0 0 0 0 0 0.7 0"/>
<feBlend mode="normal" in2="BackgroundImageFix" result="effect1_dropShadow"/>
<feBlend mode="normal" in="SourceGraphic" in2="effect1_dropShadow" result="shape"/>
</filter>
<clipPath id="clip0">
<rect width="24" height="20.93" fill="white" transform="translate(8 10)"/>
</clipPath>
</defs>
</svg>
