<svg width="40" height="40" viewBox="0 0 40 40" fill="none" xmlns="http://www.w3.org/2000/svg">
<path d="M20 1C30.5 1 39 9.5 39 20C39 30.5 30.5 39 20 39C9.5 39 1 30.5 1 20C1 9.5 9.5 1 20 1ZM20 0C9 0 0 9 0 20C0 31 9 40 20 40C31 40 40 31 40 20C40 9 31 0 20 0Z" fill="white"/>
<path d="M12 29H28C28 25.7 26.4 22.9 24.1 21.3C25.2 20.2 26 18.7 26 17C26 13.7 23.3 11 20 11C16.7 11 14 13.7 14 17C14 18.7 14.7 20.2 15.9 21.3C13.6 22.9 12 25.7 12 29ZM15 17C15 14.2 17.2 12 20 12C22.8 12 25 14.2 25 17C25 19.8 22.8 22 20 22C17.2 22 15 19.8 15 17ZM16.7 22C17.7 22.6 18.8 23 20 23C21.2 23 22.4 22.6 23.3 22C25.2 23.2 26.6 25.4 26.9 28H13.1C13.3 25.4 14.7 23.2 16.7 22Z" fill="white"/>
</svg>
