<svg width="40" height="40" viewBox="0 0 40 40" fill="none" xmlns="http://www.w3.org/2000/svg">
<path d="M20 1C30.5 1 39 9.5 39 20C39 30.5 30.5 39 20 39C9.5 39 1 30.5 1 20C1 9.5 9.5 1 20 1ZM20 0C9 0 0 9 0 20C0 31 9 40 20 40C31 40 40 31 40 20C40 9 31 0 20 0Z" fill="white"/>
<path d="M17 29H33C33 25.7 31.4 22.9 29.1 21.3C30.2 20.2 31 18.7 31 17C31 13.7 28.3 11 25 11C21.7 11 19 13.7 19 17C19 18.7 19.7 20.2 20.9 21.3C18.6 22.9 17 25.7 17 29ZM20 17C20 14.2 22.2 12 25 12C27.8 12 30 14.2 30 17C30 19.8 27.8 22 25 22C22.2 22 20 19.8 20 17ZM21.7 22C22.7 22.6 23.8 23 25 23C26.2 23 27.4 22.6 28.3 22C30.2 23.2 31.6 25.4 31.9 28H18.1C18.3 25.4 19.7 23.2 21.7 22Z" fill="white"/>
<path d="M14.7 17H9.70001V12H8.70001V17H3.70001V18H8.70001V23H9.70001V18H14.7V17Z" fill="white"/>
</svg>
