<svg width="40" height="40" viewBox="0 0 40 40" fill="none" xmlns="http://www.w3.org/2000/svg">
<path d="M19 19V28H28V19H19ZM20 20.6L20.6 20H22L20 22.1V20.6ZM20 23.5L23.5 20H24.9L20 24.9V23.5ZM27 26.4L26.4 27H25L27.1 24.9V26.4H27ZM27 23.5L23.5 27H22.1L27 22.1V23.5ZM27 20.7L20.7 27H20V26.3L26.3 20H27V20.7Z" fill="white"/>
<path d="M16 13V16H13V13H16ZM17 12H12V17H17V12Z" fill="white"/>
<path d="M18 13C20.8 13 23 15.2 23 18H24C24 14.7 21.3 12 18 12V13Z" fill="white"/>
<path d="M18 23C15.2 23 13 20.8 13 18H12C12 21.3 14.7 24 18 24V23Z" fill="white"/>
</svg>
