<svg width="40" height="40" viewBox="0 0 40 40" fill="none" xmlns="http://www.w3.org/2000/svg">
<path d="M16 13V16H13V13H16ZM17 12H12V17H17V12Z" fill="white"/>
<path d="M23 19C25.2 19 27 20.8 27 23C27 25.2 25.2 27 23 27C20.8 27 19 25.2 19 23C19 20.8 20.8 19 23 19ZM23 18C20.2 18 18 20.2 18 23C18 25.8 20.2 28 23 28C25.8 28 28 25.8 28 23C28 20.2 25.8 18 23 18Z" fill="white"/>
<path d="M18 12V13C20.4 13 22.4 14.7 22.9 17C23.3 17 23.6 17.1 23.9 17.2C23.5 14.3 21 12 18 12Z" fill="white"/>
<path d="M13 18H12C12 21 14.3 23.5 17.2 23.9C17.1 23.6 17 23.2 17 22.9C14.7 22.4 13 20.4 13 18Z" fill="white"/>
</svg>
