<svg width="40" height="40" viewBox="0 0 40 40" fill="none" xmlns="http://www.w3.org/2000/svg">
<path d="M20 1C30.5 1 39 9.5 39 20C39 30.5 30.5 39 20 39C9.5 39 1 30.5 1 20C1 9.5 9.5 1 20 1ZM20 0C9 0 0 9 0 20C0 31 9 40 20 40C31 40 40 31 40 20C40 9 31 0 20 0Z" fill="white"/>
<path d="M15 31H31C31 27.7 29.4 24.9 27.1 23.3C28.2 22.2 29 20.7 29 19C29 15.7 26.3 13 23 13C19.7 13 17 15.7 17 19C17 20.7 17.7 22.2 18.9 23.3C16.6 24.9 15 27.7 15 31ZM18 19C18 16.2 20.2 14 23 14C25.8 14 28 16.2 28 19C28 21.8 25.8 24 23 24C20.2 24 18 21.8 18 19ZM19.7 24C20.7 24.6 21.8 25 23 25C24.2 25 25.4 24.6 26.3 24C28.2 25.2 29.6 27.4 29.9 30H16.1C16.3 27.4 17.7 25.2 19.7 24Z" fill="white"/>
<path d="M30 19C30 20.4 29.6 21.8 28.8 22.9C29.3 23.2 29.7 23.6 30.1 24H37C36.9 21 35.4 18.4 33.4 17.5C34.4 16.9 35 15.8 35 14.5C35 12.6 33.4 11 31.5 11C29.7 11 28.2 12.4 28 14.1C29.2 15.4 30 17.1 30 19Z" fill="white"/>
<path d="M15 17H10V12H9V17H4V18H9V23H10V18H15V17Z" fill="white"/>
</svg>
