<svg width="40" height="40" viewBox="0 0 40 40" fill="none" xmlns="http://www.w3.org/2000/svg">
<path d="M20 1C30.5 1 39 9.5 39 20C39 30.5 30.5 39 20 39C9.5 39 1 30.5 1 20C1 9.5 9.5 1 20 1ZM20 0C9 0 0 9 0 20C0 31 9 40 20 40C31 40 40 31 40 20C40 9 31 0 20 0Z" fill="white"/>
<path d="M12 31H28C28 27.7 26.4 24.9 24.1 23.3C25.2 22.2 26 20.7 26 19C26 15.7 23.3 13 20 13C16.7 13 14 15.7 14 19C14 20.7 14.7 22.2 15.9 23.3C13.6 24.9 12 27.7 12 31ZM15 19C15 16.2 17.2 14 20 14C22.8 14 25 16.2 25 19C25 21.8 22.8 24 20 24C17.2 24 15 21.8 15 19ZM16.7 24C17.7 24.6 18.8 25 20 25C21.2 25 22.4 24.6 23.3 24C25.2 25.2 26.6 27.4 26.9 30H13.1C13.3 27.4 14.7 25.2 16.7 24Z" fill="white"/>
<path d="M6 24H12.9C13.3 23.6 13.7 23.2 14.2 22.9C13.4 21.8 13 20.4 13 19C13 17.1 13.8 15.4 15 14.1C14.8 12.3 13.3 11 11.5 11C9.6 11 8 12.6 8 14.5C8 15.7 8.7 16.8 9.6 17.5C7.6 18.4 6.2 21 6 24Z" fill="white"/>
<path d="M27 19C27 20.4 26.6 21.8 25.8 22.9C26.3 23.2 26.7 23.6 27.1 24H34C33.9 21 32.4 18.4 30.4 17.5C31.4 16.9 32 15.8 32 14.5C32 12.6 30.4 11 28.5 11C26.7 11 25.2 12.4 25 14.1C26.2 15.4 27 17.1 27 19Z" fill="white"/>
</svg>
