<svg width="40" height="40" viewBox="0 0 40 40" fill="none" xmlns="http://www.w3.org/2000/svg">
<path fill-rule="evenodd" clip-rule="evenodd" d="M20.5 15H22.6C23.9 15 25 16.1 25 17.4V17.6C25 18.9 23.9 20 22.6 20H20.5C20.2 20 20 19.8 20 19.4V15.5C20 15.2 20.2 15 20.5 15ZM20.6 21H20.8C23.1 21 25 22.9 25 25.2V25.4C25 25.7 24.7 26 24.4 26H20.6C20.3 26 20 25.7 20 25.4V21.6C20 21.3 20.3 21 20.6 21ZM16.6 21H14.5C14.2 21 14 21.2 14 21.5V25.4C14 25.8 14.2 26 14.5 26H16.6C17.9 26 19 24.9 19 23.6V23.4C19 22.1 17.9 21 16.6 21ZM14.5 15H16.6C17.9 15 19 16.1 19 17.4V17.6C19 18.9 17.9 20 16.6 20H14.5C14.2 20 14 19.8 14 19.4V15.5C14 15.2 14.2 15 14.5 15Z" fill="white"/>
</svg>
