<svg width="40" height="40" viewBox="0 0 40 40" fill="none" xmlns="http://www.w3.org/2000/svg">
<path d="M26.4 30H13.6C10 30 7 27 7 23.3C7 19.9 9.6 17 13 16.7C14 13.4 17.2 11 20.7 11C24.4 11 27.6 13.5 28.5 17C31.2 17.9 33 20.4 33 23.3C33 27 30 30 26.4 30ZM13.6 18.7C11.1 18.7 9 20.8 9 23.3C9 25.8 11.1 28 13.6 28H26.3C28.9 28 30.9 25.9 30.9 23.3C30.9 21.1 29.4 19.3 27.3 18.8L26.7 18.6V18C26.2 15.1 23.7 13 20.8 13C17.9 13 15.4 15.1 14.9 17.9L14.6 18.7H13.6Z" fill="white"/>
<path d="M22 22V25H19V22H16.5L20.5 17.5L24.5 22H22Z" fill="white"/>
</svg>
