<svg width="40" height="40" viewBox="0 0 40 40" fill="none" xmlns="http://www.w3.org/2000/svg">
<path fill-rule="evenodd" clip-rule="evenodd" d="M27.5 13C27.7761 13 28 12.7761 28 12.5C28 12.2239 27.7761 12 27.5 12C27.2239 12 27 12.2239 27 12.5C27 12.7761 27.2239 13 27.5 13ZM12 21C12 22.9 14.9 24.4 18 24.9V22L22 25.5L18 29V25.9C14 25.4 11 23.4 11 21C11 19.8 11.8 18.7 13 17.9V19.1C12.4 19.7 12 20.3 12 21ZM27 19.2V17.9C28.2 18.7 29 19.8 29 21.1C29 23.3 26.5 25.1 23 25.8V24.8C25.7 24.2 28 22.8 28 21.1C28 20.4 27.6 19.7 27 19.2ZM16.3 14.8C16.3 14.4 16.1 14.2 15.7 14.2C15.3 14.2 15 14.3 14.7 14.5L14.1 13.8C14.5 13.5 15.1 13.2 15.7 13.2C16.7 13.2 17.4 13.7 17.4 14.6C17.4 15.1 17.1 15.5 16.6 15.7C17.2 15.8 17.6 16.3 17.6 16.9C17.6 17.9 16.7 18.4 15.7 18.4H15.6C15 18.4 14.4 18.1 14 17.7L14.5 17C14.8 17.3 15.2 17.5 15.6 17.5C16.1 17.5 16.4 17.3 16.4 16.9C16.4 16.5 16.2 16.2 15.1 16.2V15.4C16 15.4 16.3 15.2 16.3 14.8ZM20.2 18.4C21.1 18.4 21.9 17.7 21.9 16.8V16.7C21.9 15.6 21.3 15.2 20.4 15.2C20 15.2 19.6 15.4 19.4 15.7C19.4 14.5 19.9 14.1 20.4 14.1C20.7 14.1 21 14.2 21.2 14.5L21.8 13.8C21.4 13.4 20.9 13.2 20.4 13.2C19.3 13.2 18.4 14 18.4 15.9C18.3 17.7 19.2 18.4 20.2 18.4ZM20.1 16C20.5 16 20.8 16.2 20.8 16.7C20.8 17.2 20.5 17.6 20.2 17.6C19.9 17.6 19.5 17.3 19.4 16.6C19.5 16.2 19.8 16.1 20.1 16ZM22.4 15.8C22.4 14.1 23.1 13.2 24.2 13.2C25.3 13.2 26 14.1 26 15.8C26 17.5 25.3 18.4 24.2 18.4C23.1 18.4 22.4 17.5 22.4 15.8ZM23.5 15.8C23.5 17.1 23.8 17.5 24.2 17.5C24.6 17.5 24.9 17.2 24.9 15.8C24.9 14.4 24.6 14.1 24.2 14.1C23.8 14.1 23.5 14.5 23.5 15.8Z" fill="white"/>
</svg>
