<svg width="40" height="40" viewBox="0 0 40 40" fill="none" xmlns="http://www.w3.org/2000/svg">
<path d="M19.4503 13C14.2775 13 10 17.1 10 22.2C10 24 10.4974 25.6 11.4921 27H27.5079C28.4031 25.6 29 23.9 29 22.2C28.9005 17.1 24.623 13 19.4503 13ZM26.911 26H11.9895C11.2932 24.8 10.9948 23.5 10.9948 22.2C10.9948 17.7 14.7749 14 19.4503 14C24.1257 14 27.9058 17.7 27.9058 22.2C27.9058 23.5 27.6073 24.8 26.911 26Z" fill="white"/>
<path d="M20.0471 21.1C19.8482 21.1 19.6492 21 19.4503 21C18.6545 21 17.9581 21.7 17.9581 22.5C17.9581 23.3 18.6545 24 19.4503 24C20.2461 24 20.9424 23.3 20.9424 22.5C20.9424 22.3 20.8429 22.1 20.8429 21.9L22.6335 19.4L20.0471 21.1Z" fill="white"/>
<path d="M19.4503 17C19.725 17 19.9476 16.7761 19.9476 16.5C19.9476 16.2239 19.725 16 19.4503 16C19.1756 16 18.9529 16.2239 18.9529 16.5C18.9529 16.7761 19.1756 17 19.4503 17Z" fill="white"/>
<path d="M25.4189 23C25.6936 23 25.9163 22.7761 25.9163 22.5C25.9163 22.2239 25.6936 22 25.4189 22C25.1442 22 24.9215 22.2239 24.9215 22.5C24.9215 22.7761 25.1442 23 25.4189 23Z" fill="white"/>
<path d="M13.4816 23C13.7563 23 13.979 22.7761 13.979 22.5C13.979 22.2239 13.7563 22 13.4816 22C13.2069 22 12.9843 22.2239 12.9843 22.5C12.9843 22.7761 13.2069 23 13.4816 23Z" fill="white"/>
<path d="M15.2723 18.8C15.547 18.8 15.7697 18.5761 15.7697 18.3C15.7697 18.0239 15.547 17.8 15.2723 17.8C14.9976 17.8 14.7749 18.0239 14.7749 18.3C14.7749 18.5761 14.9976 18.8 15.2723 18.8Z" fill="white"/>
<path d="M23.6282 18.8C23.9029 18.8 24.1256 18.5761 24.1256 18.3C24.1256 18.0239 23.9029 17.8 23.6282 17.8C23.3535 17.8 23.1309 18.0239 23.1309 18.3C23.1309 18.5761 23.3535 18.8 23.6282 18.8Z" fill="white"/>
</svg>
