<svg width="89" height="112" viewBox="0 0 89 112" fill="none" xmlns="http://www.w3.org/2000/svg">
<g clip-path="url(#clip0)">
<path d="M31.9685 70.9968L29.5489 79.4919H27.5352L25.1434 71.0135V79.4919H22.7793V67.0215H26.3337L28.5365 75.0307L30.7504 67.0215H34.3382V79.4877H31.9741L31.9685 70.9968Z" fill="#BDBDBF"/>
<path d="M36.1729 67.0215H44.4999V69.3002H38.8262V71.8471H42.9702V74.1259L38.8262 74.1426V77.2145H44.7002V79.4933H36.1729V67.0215Z" fill="#BDBDBF"/>
<path d="M50.2241 79.6594C49.296 79.6536 48.3854 79.4053 47.5819 78.9389C47.1328 78.6986 46.7313 78.3777 46.3971 77.9922C46.0273 77.5471 45.7289 77.0468 45.5127 76.5094L47.7377 75.532C47.863 75.8074 48.008 76.0734 48.1716 76.3279C48.318 76.5574 48.498 76.7636 48.7056 76.9394C48.9125 77.1106 49.1479 77.2439 49.4009 77.3332C49.6881 77.4314 49.9903 77.4787 50.2937 77.4728C50.5234 77.4732 50.7526 77.4508 50.9779 77.4058C51.1871 77.3662 51.3877 77.2896 51.5703 77.1796C51.7427 77.0735 51.8838 76.9231 51.9791 76.744C52.0868 76.5276 52.1384 76.2875 52.1293 76.0458C52.1234 75.8321 52.0617 75.6236 51.9504 75.4413C51.8391 75.259 51.6822 75.1093 51.4952 75.007C50.9672 74.6638 50.4017 74.3826 49.8097 74.1692C48.774 73.8155 47.7999 73.301 46.9228 72.6444C46.5884 72.3527 46.3244 71.9883 46.1509 71.579C45.9775 71.1697 45.899 70.7261 45.9215 70.2819C45.9134 69.8086 46.0146 69.3399 46.2173 68.9125C46.42 68.4851 46.7186 68.1108 47.0897 67.8188C47.9152 67.1524 48.9514 66.8056 50.01 66.8414C50.9408 66.8265 51.8567 67.0763 52.6522 67.5619C53.0467 67.8009 53.3968 68.1071 53.6868 68.4667C54.0227 68.8957 54.2978 69.3694 54.5045 69.8741L52.0514 70.6282C51.8802 70.192 51.6218 69.7956 51.2921 69.4636C50.9366 69.1495 50.4715 68.9898 49.9989 69.0196C49.8165 69.0201 49.6348 69.0397 49.4565 69.0783C49.2814 69.1142 49.1126 69.1764 48.9559 69.2626C48.7962 69.3494 48.6639 69.4794 48.574 69.6378C48.484 69.7963 48.44 69.9768 48.4469 70.159C48.4491 70.3334 48.5044 70.503 48.6054 70.6449C48.7501 70.8347 48.9355 70.9893 49.1478 71.0973C49.7257 71.4181 50.3307 71.6872 50.9556 71.9016C51.8705 72.209 52.7278 72.6677 53.4921 73.2588C53.8852 73.5584 54.1988 73.9504 54.4054 74.4004C54.612 74.8504 54.7053 75.3445 54.6769 75.8391C54.7069 76.369 54.6175 76.8988 54.4152 77.3891C54.213 77.8793 53.9031 78.3175 53.5088 78.6708C52.5647 79.3799 51.401 79.7301 50.2241 79.6594Z" fill="#BDBDBF"/>
<path d="M63.423 74.2976H59.2178V79.4919H56.5645V67.0215H59.2178V71.8303H63.4564V67.0215H66.1097V79.4877H63.423V74.2976Z" fill="#BDBDBF"/>
<path d="M55.9482 51.7842L63.2309 47.5617V39.1211L55.9482 43.3505V51.7842Z" fill="#BDBDBF"/>
<path d="M61.8399 36.703L54.5599 32.4834L47.2842 36.7016L54.5711 40.924L61.8399 36.703Z" fill="#BDBDBF"/>
<path d="M53.1664 43.9354V43.335L45.8906 39.1182V47.5616L53.1664 51.7798V43.9354Z" fill="#BDBDBF"/>
<path d="M25.7695 35.896L33.0453 40.1128V32.2684V31.668L25.7695 27.4512V35.896Z" fill="#BDBDBF"/>
<path d="M74.8713 24.756C74.8434 24.7281 74.8156 24.6862 74.7878 24.6582C74.7595 24.6175 74.7269 24.5801 74.6905 24.5465L54.8184 4.5934C54.7906 4.56548 54.7489 4.53755 54.7211 4.50963C54.6933 4.4817 54.6377 4.43981 54.6098 4.41188L54.4012 4.18848H19.4688C17.9935 4.18848 16.5786 4.77692 15.5355 5.82434C14.4923 6.87177 13.9063 8.29239 13.9062 9.77368V79.5887C13.9063 81.07 14.4923 82.4906 15.5355 83.5381C16.5786 84.5855 17.9935 85.1739 19.4688 85.1739H69.5312C71.0065 85.1739 72.4214 84.5855 73.4645 83.5381C74.5077 82.4906 75.0938 81.07 75.0938 79.5887V24.9654L74.8713 24.756ZM55.2217 8.94986L70.3517 24.1416H58.003C57.266 24.1394 56.5599 23.8445 56.0388 23.3212C55.5177 22.798 55.2239 22.089 55.2217 21.349V8.94986ZM22.9884 24.231L34.4402 17.593L45.8906 24.231V34.2843L54.5598 29.2577L66.0116 35.8957V49.1731L54.5598 55.8125L43.1094 49.1745V39.1211L34.4402 44.1478L22.9884 37.5084V24.231ZM72.3125 79.5887C72.3103 80.3287 72.0166 81.0377 71.4955 81.561C70.9743 82.0842 70.2682 82.3791 69.5312 82.3813H19.4688C18.7318 82.3791 18.0257 82.0842 17.5045 81.561C16.9834 81.0377 16.6897 80.3287 16.6875 79.5887V57.8902H35.7808L39.5355 62.2048C39.6647 62.3551 39.8249 62.4754 40.0049 62.5574C40.185 62.6393 40.3807 62.681 40.5784 62.6795H72.3125V79.5887Z" fill="#BDBDBF"/>
<path d="M41.7188 25.039L34.4402 20.8193L27.1631 25.0362L34.45 29.2586L41.7188 25.039Z" fill="#BDBDBF"/>
<path d="M35.8281 40.1191L43.1108 35.8981V35.8967V27.4561L35.8281 31.6841V40.1191Z" fill="#BDBDBF"/>
</g>
<defs>
<clipPath id="clip0">
<rect width="89" height="111.704" fill="white"/>
</clipPath>
</defs>
</svg>
