<svg width="94" height="69" viewBox="0 0 94 69" fill="none" xmlns="http://www.w3.org/2000/svg">
<g filter="url(#filter0_d)">
<g clip-path="url(#clip0)">
<path d="M73.3333 24.3293V28.1529C76.2467 30.5999 77.9333 33.3529 77.9333 36.4117C77.9333 42.9882 69.5 48.9529 58 51.247V54.4588C71.34 51.8588 81 44.8235 81 36.4117C81 31.8235 78.0867 27.6941 73.3333 24.3293Z" fill="white"/>
<path d="M38.8333 52.0117C25.34 50.1764 15.0667 43.7529 15.0667 36.4117C15.0667 33.5058 16.7533 30.5999 19.6667 28.1529V24.3293C14.9133 27.5411 12 31.8235 12 36.4117C12 45.4352 23.5 53.0823 38.8333 55.0705V66.9999L54.1667 53.5411L38.8333 40.0823V52.0117Z" fill="white"/>
<path d="M30.2778 11.9412C31.8334 11.9412 32.6111 12.7294 32.6111 14.3059C32.6111 15.8824 31.4445 16.6706 27.9445 16.6706V19.8235C32.2222 19.8235 33 21.0059 33 22.5824C33 24.1588 31.8334 24.9471 29.8889 24.9471C28.3334 24.9471 26.7778 24.1588 25.6111 22.9765L23.6667 25.7353C25.2222 27.3118 27.5556 28.4941 29.8889 28.4941H30.2778C34.1667 28.4941 37.6667 26.5235 37.6667 22.5824C37.6667 20.2176 36.1111 18.2471 33.7778 17.8529C35.7222 17.0647 36.8889 15.4882 36.8889 13.5176C36.8889 9.97059 34.1667 8 30.2778 8C27.9445 8 25.6111 9.18235 24.0556 10.3647L26.3889 13.1235C27.5556 12.3353 28.7222 11.9412 30.2778 11.9412Z" fill="white"/>
<path d="M47.7778 28.4941C51.2778 28.4941 54.3889 25.7353 54.3889 22.1882V21.7941C54.3889 17.4588 52.0556 15.8824 48.5556 15.8824C47 15.8824 45.4445 16.6706 44.6667 17.8529C44.6667 13.1235 46.6111 11.5471 48.5556 11.5471C49.7222 11.5471 50.8889 11.9412 51.6667 13.1235L54 10.3647C52.4445 8.78823 50.5 8 48.5556 8C44.2778 8 40.7778 11.1529 40.7778 18.6412C40.3889 25.7353 43.8889 28.4941 47.7778 28.4941ZM47.3889 19.0353C48.9445 19.0353 50.1111 19.8235 50.1111 21.7941C50.1111 23.7647 48.9445 25.3412 47.7778 25.3412C46.6111 25.3412 45.0556 24.1588 44.6667 21.4C45.0556 19.8235 46.2222 19.4294 47.3889 19.0353Z" fill="white"/>
<path d="M63.3333 8C59.0555 8 56.3333 11.5471 56.3333 18.2471C56.3333 24.9471 59.0555 28.4941 63.3333 28.4941C67.6111 28.4941 70.3333 24.9471 70.3333 18.2471C70.3333 11.5471 67.6111 8 63.3333 8ZM63.3333 24.9471C61.7778 24.9471 60.6111 23.3706 60.6111 18.2471C60.6111 13.1235 61.7778 11.5471 63.3333 11.5471C64.8889 11.5471 66.0555 12.7294 66.0555 18.2471C66.0555 23.7647 64.8889 24.9471 63.3333 24.9471Z" fill="white"/>
<path d="M75.1733 5.67059C76.1895 5.67059 77.0133 4.8489 77.0133 3.83529C77.0133 2.82169 76.1895 2 75.1733 2C74.1571 2 73.3333 2.82169 73.3333 3.83529C73.3333 4.8489 74.1571 5.67059 75.1733 5.67059Z" fill="white"/>
</g>
</g>
<defs>
<filter id="filter0_d" x="-2" y="-1" width="98" height="72" filterUnits="userSpaceOnUse" color-interpolation-filters="sRGB">
<feFlood flood-opacity="0" result="BackgroundImageFix"/>
<feColorMatrix in="SourceAlpha" type="matrix" values="0 0 0 0 0 0 0 0 0 0 0 0 0 0 0 0 0 0 127 0"/>
<feOffset/>
<feGaussianBlur stdDeviation="1"/>
<feColorMatrix type="matrix" values="0 0 0 0 0 0 0 0 0 0 0 0 0 0 0 0 0 0 0.7 0"/>
<feBlend mode="normal" in2="BackgroundImageFix" result="effect1_dropShadow"/>
<feBlend mode="normal" in="SourceGraphic" in2="effect1_dropShadow" result="shape"/>
</filter>
<clipPath id="clip0">
<rect width="70" height="65" fill="white" transform="translate(12 2)"/>
</clipPath>
</defs>
</svg>
