<svg width="24" height="24" viewBox="0 0 24 24" fill="none" xmlns="http://www.w3.org/2000/svg">
<path fill-rule="evenodd" clip-rule="evenodd" d="M12.457 1.90547C14.4967 0.00935298 17.3319 0 17.3319 0C17.3319 0 17.7536 1.78281 15.7277 3.5005C13.564 5.33439 11.1052 5.03438 11.1052 5.03438C11.1052 5.03438 10.6432 3.59187 12.457 1.90547Z" fill="black"/>
<path fill-rule="evenodd" clip-rule="evenodd" d="M11.8466 6.21169C12.6324 6.21169 14.0901 5.05273 15.9881 5.05273C19.2549 5.05273 20.54 7.54767 20.54 7.54767C20.54 7.54767 18.0266 8.92711 18.0266 12.274C18.0266 16.0497 21.1578 17.3508 21.1578 17.3508C21.1578 17.3508 18.9689 23.9636 16.0125 23.9636C14.6544 23.9636 13.5991 22.9812 12.1681 22.9812C10.71 22.9812 9.26329 24 8.32099 24C5.62121 24.0004 2.21051 17.7278 2.21051 12.6855C2.21051 7.72471 5.09737 5.1224 7.80516 5.1224C9.56569 5.12199 10.9318 6.21169 11.8466 6.21169Z" fill="black"/>
</svg>
