<svg width="40" height="40" viewBox="0 0 40 40" fill="none" xmlns="http://www.w3.org/2000/svg">
<g filter="url(#filter0_d)">
<path d="M10.272 26L12.72 15.12L16.912 15.12L19.36 26H17.152L16.72 24.032H12.912L12.48 26H10.272ZM14.432 16.944L13.328 22.112H16.304L15.2 16.944H14.432Z" fill="black"/>
<path d="M23.017 22.352L23.017 26H20.809L20.809 15.12L25.033 15.12C27.593 15.12 28.873 16.3147 28.873 18.704C28.873 20.1227 28.3396 21.168 27.273 21.84L28.825 26H26.409L25.145 22.352H23.017ZM25.065 20.464C25.5876 20.464 25.977 20.304 26.233 19.984C26.489 19.664 26.617 19.2427 26.617 18.72C26.617 18.1973 26.4783 17.7813 26.201 17.472C25.9343 17.1627 25.545 17.008 25.033 17.008H23.017V20.464H25.065Z" fill="black"/>
</g>
<defs>
<filter id="filter0_d" x="-2" y="-2" width="44" height="44" filterUnits="userSpaceOnUse" color-interpolation-filters="sRGB">
<feFlood flood-opacity="0" result="BackgroundImageFix"/>
<feColorMatrix in="SourceAlpha" type="matrix" values="0 0 0 0 0 0 0 0 0 0 0 0 0 0 0 0 0 0 127 0"/>
<feOffset/>
<feGaussianBlur stdDeviation="1"/>
<feColorMatrix type="matrix" values="0 0 0 0 1 0 0 0 0 1 0 0 0 0 1 0 0 0 0.7 0"/>
<feBlend mode="normal" in2="BackgroundImageFix" result="effect1_dropShadow"/>
<feBlend mode="normal" in="SourceGraphic" in2="effect1_dropShadow" result="shape"/>
</filter>
</defs>
</svg>
