<svg width="40" height="40" viewBox="0 0 40 40" fill="none" xmlns="http://www.w3.org/2000/svg">
<path d="M22.1012 13.1561L20.1974 12.0694C20.151 12.0231 20.0813 12 19.9884 12C19.9188 12 19.8491 12.0231 19.7795 12.0694L17.8989 13.1561C17.7364 13.2486 17.6899 13.4566 17.7828 13.6185C17.8757 13.7803 18.0846 13.8266 18.2472 13.7341L19.6866 12.9017V14.7514C19.6866 14.9364 19.8259 15.0751 20.0117 15.0751C20.1974 15.0751 20.3367 14.9364 20.3367 14.7514V12.9017L21.7762 13.7341C21.8226 13.7572 21.8923 13.7803 21.9387 13.7803C22.0548 13.7803 22.1709 13.711 22.2405 13.6185C22.3334 13.4566 22.2637 13.2486 22.1012 13.1561Z" fill="black"/>
<path d="M27.0001 21.5954C27.0001 21.4105 26.8608 21.2717 26.6751 21.2717C26.4894 21.2717 26.3501 21.4105 26.3501 21.5954V23.2602L24.9106 22.4278C24.7481 22.3353 24.5391 22.3816 24.4462 22.5434C24.3534 22.7053 24.3998 22.9133 24.5623 23.0058L26.0018 23.8382L24.5623 24.6706C24.4462 24.7168 24.3766 24.8324 24.3766 24.948C24.3766 25.133 24.5159 25.2717 24.7016 25.2717C24.7713 25.2717 24.8177 25.2486 24.8641 25.2255L26.768 24.1388C26.884 24.0925 26.9769 24.0001 26.9769 23.8613V23.8382V21.5954H27.0001Z" fill="black"/>
<path d="M21.753 26.289L20.3135 27.1214V25.4566C20.3135 25.2717 20.1742 25.1329 19.9885 25.1329C19.8027 25.1329 19.6634 25.2717 19.6634 25.4566V27.1214L18.224 26.289C18.0614 26.1965 17.8525 26.2428 17.7596 26.4046C17.6667 26.5665 17.7132 26.7746 17.8757 26.867L19.8259 27.9769C19.8259 27.9769 19.8259 27.9769 19.8492 27.9769C19.8724 27.9769 19.8724 28 19.8956 28H19.9188C19.942 28 19.9653 28 19.9885 28C20.0117 28 20.0349 28 20.0581 28C20.0813 28 20.0813 28 20.1046 27.9769C20.1046 27.9769 20.1278 27.9769 20.1278 27.9537H20.151L22.078 26.8439C22.1941 26.7514 22.2173 26.6127 22.1709 26.474C22.1245 26.3121 21.9387 26.2196 21.753 26.289Z" fill="black"/>
<path d="M21.7762 18.5896L20.0117 19.607L18.224 18.5896C18.0614 18.4971 17.8525 18.5434 17.7596 18.7052C17.6667 18.8671 17.7132 19.0752 17.8757 19.1677L19.6634 20.185V22.2197C19.6634 22.2197 19.6634 22.2197 19.6634 22.2428C19.6634 22.4278 19.8027 22.5665 19.9885 22.5665C20.1742 22.5665 20.3135 22.4278 20.3135 22.2428V20.2081L22.078 19.1908C22.2173 19.0983 22.2638 18.9133 22.1941 18.7515C22.1477 18.5665 21.9387 18.4971 21.7762 18.5896Z" fill="black"/>
<path d="M24.5391 15.3295L25.9786 16.1619L24.5391 16.9943C24.423 17.0636 24.3766 17.1561 24.3766 17.2949C24.3766 17.4798 24.5159 17.6186 24.7016 17.6186C24.7713 17.6186 24.8177 17.5954 24.8641 17.5723L26.3036 16.7399V18.4047C26.3036 18.5897 26.4429 18.7284 26.6286 18.7284C26.8144 18.7284 26.9537 18.5897 26.9537 18.4047V16.1619C26.9537 16.1388 26.9537 16.1388 26.9537 16.1157V16.0925C26.9537 16.0694 26.9537 16.0463 26.9305 16.0463C26.9305 16.0232 26.9072 16.0232 26.9072 16.0001C26.9072 15.9769 26.884 15.9769 26.884 15.9538C26.884 15.9538 26.8608 15.9307 26.8376 15.9307C26.8376 15.9307 26.8376 15.9307 26.8144 15.9076C26.8144 15.9076 26.8144 15.9076 26.7912 15.9076L24.8409 14.7977C24.6784 14.7053 24.4694 14.7515 24.3766 14.9134C24.3301 15.029 24.3766 15.2371 24.5391 15.3295Z" fill="black"/>
<path d="M15.4379 16.9711L13.9985 16.1618L15.4379 15.3526C15.6005 15.2601 15.6469 15.052 15.554 14.8902C15.4612 14.7283 15.2522 14.6821 15.0897 14.7746L13.2323 15.8381C13.1626 15.8613 13.093 15.9075 13.0466 15.9769C13.0233 16.0462 13.0001 16.0925 13.0001 16.1387C13.0001 16.1387 13.0001 16.1387 13.0001 16.1618V18.3815C13.0001 18.5665 13.1394 18.7052 13.3252 18.7052C13.5109 18.7052 13.6502 18.5665 13.6502 18.3815V16.7168L15.0897 17.5491C15.1361 17.5722 15.2058 17.5954 15.2522 17.5954C15.3683 17.5954 15.4844 17.526 15.554 17.4335C15.6701 17.2717 15.6005 17.0636 15.4379 16.9711Z" fill="black"/>
<path d="M15.4379 24.6706L13.9984 23.8382L15.4379 23.0058C15.6004 22.9133 15.6469 22.7053 15.554 22.5434C15.4611 22.3816 15.2522 22.3353 15.0897 22.4278L13.6502 23.2602V21.5954C13.6502 21.4105 13.5109 21.2717 13.3251 21.2717C13.1394 21.2717 13.0001 21.4105 13.0001 21.5954V23.792C12.9769 23.9076 13.0465 24.0463 13.1394 24.1157C13.1394 24.1157 13.1394 24.1157 13.1626 24.1157L15.1129 25.2255C15.1593 25.2486 15.229 25.2717 15.2754 25.2717C15.3915 25.2717 15.5076 25.2024 15.5772 25.1099C15.6701 24.948 15.6004 24.7631 15.4379 24.6706Z" fill="black"/>
<path opacity="0.2" d="M26.8368 16.1156C26.8136 16.0463 26.7904 16 26.7208 15.9769L20.1038 12.1619H20.0806H20.0574C20.0574 12.1619 20.0574 12.1619 20.0342 12.1619C20.0342 12.1619 20.0342 12.1619 20.011 12.1619C19.9878 12.1619 19.9878 12.1619 19.9645 12.1619H19.9413C19.9413 12.1619 19.9413 12.1619 19.9181 12.1619L13.2315 16C13.1619 16.0231 13.1387 16.0925 13.1387 16.1619V16.185V23.7919V23.815C13.1387 23.8382 13.1387 23.8382 13.1387 23.8613C13.1387 23.8613 13.1387 23.8613 13.1387 23.8844C13.1387 23.9075 13.1619 23.9075 13.1619 23.9307C13.1619 23.9307 13.1619 23.9538 13.1851 23.9538C13.1851 23.9769 13.2083 23.9769 13.2083 23.9769C13.2083 23.9769 13.2083 23.9769 13.2315 24L19.8949 27.8382H19.9181C19.9413 27.8382 19.9645 27.8613 19.9878 27.8613C20.011 27.8613 20.011 27.8613 20.0342 27.8613C20.0574 27.8613 20.0574 27.8613 20.0806 27.8382L26.7208 24.0231C26.7904 24 26.8368 23.9538 26.8368 23.8844V23.8613V16.1619C26.8601 16.1387 26.8368 16.1387 26.8368 16.1156ZM13.5334 16.4856L19.6163 20L13.5334 23.4913V16.4856ZM26.4654 23.5145L20.3825 20L26.4654 16.4856V23.5145ZM20.1967 19.6763V12.6705L26.2796 16.1619L20.1967 19.6763ZM19.802 19.6763L13.7191 16.1619L19.802 12.6705V19.6763ZM19.802 20.3237V27.3526L13.7191 23.8382L19.802 20.3237ZM20.1967 20.3237L26.2796 23.8382L20.1967 27.3526V20.3237Z" fill="black"/>
</svg>
