<svg width="41" height="41" viewBox="0 0 41 41" fill="none" xmlns="http://www.w3.org/2000/svg">
<path fill-rule="evenodd" clip-rule="evenodd" d="M20.6743 40.0176C31.72 40.0176 40.6743 31.0633 40.6743 20.0176C40.6743 8.97188 31.72 0.0175781 20.6743 0.0175781C9.62862 0.0175781 0.674316 8.97188 0.674316 20.0176C0.674316 31.0633 9.62862 40.0176 20.6743 40.0176ZM20.8994 24.8976H24.5634C25.5234 24.8976 26.3128 24.7856 26.9314 24.5616C27.5501 24.3269 28.0194 23.9589 28.3394 23.4576C28.6701 22.9456 28.8941 22.3696 29.0114 21.7296C29.1288 21.0789 29.1874 20.2629 29.1874 19.2816C29.1874 18.3002 29.1234 17.5056 28.9954 16.8976C28.8674 16.2789 28.6328 15.7456 28.2914 15.2976C27.9608 14.8389 27.4914 14.5136 26.8834 14.3216C26.2754 14.1189 25.5021 14.0176 24.5634 14.0176H20.8994V24.8976ZM26.9154 19.1696C26.9154 19.7669 26.9048 20.2362 26.8834 20.5776C26.8088 21.4416 26.6168 22.0389 26.3074 22.3696C25.9448 22.7749 25.3634 22.9776 24.5634 22.9776H23.1074V15.9376H24.5634C25.0968 15.9376 25.5181 15.9962 25.8274 16.1136C26.1474 16.2202 26.3874 16.4229 26.5474 16.7216C26.7074 17.0202 26.8088 17.3509 26.8514 17.7136C26.8941 18.0762 26.9154 18.5616 26.9154 19.1696ZM15.0343 14.1456C13.829 14.1456 12.7357 14.3376 11.7543 14.7216L11.8983 16.3536L12.3143 16.2896C13.1463 16.1402 13.9303 16.0656 14.6663 16.0656C15.7223 16.0656 16.2503 16.4442 16.2503 17.2016C16.2503 17.5642 16.1116 17.8949 15.8343 18.1936C15.5676 18.4922 15.2583 18.6416 14.9063 18.6416H12.7783V20.4656H14.9063C15.365 20.4656 15.733 20.5829 16.0103 20.8176C16.2983 21.0522 16.4423 21.3669 16.4423 21.7616C16.4423 22.7002 15.893 23.1696 14.7943 23.1696C13.9837 23.1696 12.981 23.0682 11.7863 22.8656L11.6743 24.5456L12.1863 24.6736C13.2103 24.9509 14.1863 25.0896 15.1143 25.0896C16.373 25.0896 17.285 24.8122 17.8503 24.2576C18.4263 23.7029 18.7143 22.8549 18.7143 21.7136C18.7143 21.0629 18.6023 20.5882 18.3783 20.2896C18.165 19.9909 17.8023 19.7029 17.2903 19.4256C18.1117 18.8816 18.5223 18.0976 18.5223 17.0736C18.5223 16.0496 18.245 15.3082 17.6903 14.8496C17.1357 14.3802 16.2503 14.1456 15.0343 14.1456Z" fill="black"/>
</svg>
