<svg width="40" height="40" viewBox="0 0 40 40" fill="none" xmlns="http://www.w3.org/2000/svg">
<path fill-rule="evenodd" clip-rule="evenodd" d="M20 37C29.3888 37 37 29.3888 37 20C37 10.6112 29.3888 3 20 3C10.6112 3 3 10.6112 3 20C3 29.3888 10.6112 37 20 37ZM13.1659 14.9H26.8719C27.7805 14.9 28.5378 15.6176 28.5378 16.4786V23.6543C28.5378 24.5154 27.7805 25.233 26.8719 25.233H22.177L20.2082 27.7444L18.2394 25.233H13.1659C12.2572 25.233 11.5 24.5154 11.5 23.6543V16.4786C11.5 15.6176 12.2572 14.9 13.1659 14.9Z" fill="black"/>
</svg>
