<svg width="44" height="44" viewBox="0 0 44 44" fill="none" xmlns="http://www.w3.org/2000/svg">
<g filter="url(#filter0_d)">
<path fill-rule="evenodd" clip-rule="evenodd" d="M5 22C5 31.4 12.6 39 22 39C31.4 39 39 31.4 39 22C39 12.6 31.4 5 22 5C12.6 5 5 12.6 5 22ZM32.7 21.3C32.7 26.9 28.2 31.4 22.6 31.4C20.9 31.4 19.2 31 17.8 30.2L12.4 31.6L13.8 26.4C12.9 24.9 12.4 23.1 12.5 21.3C12.5 15.7 17 11.2 22.6 11.2C25.3 11.2 27.8 12.3 29.8 14.2C31.6 16.1 32.7 18.6 32.7 21.3Z" fill="black"/>
<path fill-rule="evenodd" clip-rule="evenodd" d="M14.8 29.2L18 28.4L18.3 28.6C19.6 29.4 21.1 29.8 22.6 29.8C27.2 29.8 31 26 31 21.4C31 19.2 30.1 17 28.5 15.5C26.9 13.9 24.8 13 22.6 13C18 13 14.2 16.8 14.2 21.4C14.2 23 14.6 24.5 15.5 25.9L15.7 26.2L14.8 29.2ZM27.3 23.5C27.5 23.6 27.6 23.6 27.6 23.7C27.7 23.8 27.7 24.3 27.5 24.9C27.3 25.5 26.3 26 25.8 26.1C25.4 26.2 24.8 26.2 24.2 26C23.8 25.9 23.4 25.7 22.8 25.5C20.4 24.5 18.8 22.2 18.5 21.7V21.6C18.4 21.4 17.5 20.2 17.5 19C17.5 17.8 18.1 17.2 18.3 16.9C18.3 16.9 18.3 16.9 18.3 16.8C18.5 16.5 18.8 16.5 19 16.5C19.2 16.5 19.3 16.5 19.5 16.5C19.5 16.5 19.5 16.5 19.6 16.5C19.7 16.5 19.9 16.5 20.1 16.9C20.2 17.1 20.3 17.3 20.4 17.6C20.6 18.1 20.9 18.7 20.9 18.8C21 18.9 21 19.1 20.9 19.2C20.9 19.2 20.9 19.2 20.9 19.3C20.8 19.4 20.8 19.5 20.7 19.6C20.7 19.6 20.6 19.7 20.6 19.8C20.5 19.9 20.4 20 20.4 20.1C20.3 20.2 20.1 20.4 20.3 20.6C20.4 20.9 21 21.7 21.7 22.3C22.5 23 23.2 23.3 23.6 23.5C23.7 23.5 23.7 23.6 23.8 23.6C24.1 23.7 24.2 23.7 24.3 23.5C24.4 23.3 24.9 22.8 25.1 22.5C25.3 22.2 25.4 22.3 25.7 22.4C25.9 22.5 27.2 23.1 27.4 23.2C27.2 23.5 27.3 23.5 27.3 23.5Z" fill="black"/>
</g>
<defs>
<filter id="filter0_d" x="-2" y="-2" width="48" height="48" filterUnits="userSpaceOnUse" color-interpolation-filters="sRGB">
<feFlood flood-opacity="0" result="BackgroundImageFix"/>
<feColorMatrix in="SourceAlpha" type="matrix" values="0 0 0 0 0 0 0 0 0 0 0 0 0 0 0 0 0 0 127 0"/>
<feOffset/>
<feGaussianBlur stdDeviation="1"/>
<feColorMatrix type="matrix" values="0 0 0 0 1 0 0 0 0 1 0 0 0 0 1 0 0 0 0.7 0"/>
<feBlend mode="normal" in2="BackgroundImageFix" result="effect1_dropShadow"/>
<feBlend mode="normal" in="SourceGraphic" in2="effect1_dropShadow" result="shape"/>
</filter>
</defs>
</svg>
