<svg width="40" height="40" viewBox="0 0 40 40" fill="none" xmlns="http://www.w3.org/2000/svg">
<g filter="url(#filter0_d)">
<g clip-path="url(#clip0)">
<path opacity="0.2" d="M11.2 15.5H10.4V24.5H11.2V15.5Z" fill="black"/>
<path opacity="0.2" d="M30.7 15.5H29.9V24.5H30.7V15.5Z" fill="black"/>
<path opacity="0.2" d="M19.3195 9.00841L11.5264 13.5111L11.9266 14.2038L19.7197 9.70113L19.3195 9.00841Z" fill="black"/>
<path opacity="0.2" d="M29.122 25.8828L21.3298 30.3855L21.7301 31.0781L29.5223 26.5754L29.122 25.8828Z" fill="black"/>
<path opacity="0.2" d="M29.5 24.7L21.3 20L29.5 15.3L29.1 14.6L20.9 19.4V9.90002H20.1V19.4L11.9 14.6L11.5 15.3L19.7 20L11.5 24.7L11.9 25.4L20.1 20.6V30.1H20.9V20.6L29.1 25.4L29.5 24.7Z" fill="black"/>
<path opacity="0.2" d="M21.724 8.96634L21.3243 9.6593L29.1201 14.1557L29.5198 13.4627L21.724 8.96634Z" fill="black"/>
<path opacity="0.2" d="M11.8783 25.8444L11.4786 26.5374L19.2744 31.0338L19.6741 30.3408L11.8783 25.8444Z" fill="black"/>
<path d="M30.2 21.9C29.8 21.9 29.4 22.2 29.4 22.7V24.4L28 23.5C27.6 23.3 27.2 23.4 27 23.8C26.8 24.2 26.9 24.6 27.3 24.8L28.8 25.7L27.3 26.6C26.9 26.8 26.8 27.3 27 27.6C27.2 27.9 27.7 28.1 28 27.9L30.6 26.4C30.7 26.3 30.8 26.2 30.9 26.1C31 26 31 25.9 31 25.7V22.7C31 22.2 30.7 21.9 30.2 21.9Z" fill="black"/>
<path d="M14 12.5C13.8 12.1 13.3 12 13 12.2L10.4 13.7C10.3 13.8 10.2 13.9 10.1 14C10 14.1 10 14.3 10 14.4V17.4C10 17.8 10.3 18.2 10.8 18.1C11.3 18 11.6 17.8 11.6 17.3V15.6L13 16.5C13.4 16.7 13.8 16.6 14 16.2C14.2 15.8 14.1 15.4 13.7 15.2L12.3 14.4L13.8 13.5C14.1 13.3 14.2 12.9 14 12.5Z" fill="black"/>
<path d="M23.5 9.6L20.9 8.1C20.8 8 20.6 8 20.5 8C20.4 8 20.2 8 20.1 8.1L17.5 9.6C17.2 9.8 17 10.3 17.3 10.6C17.5 11 18 11.1 18.3 10.9L19.8 10V11.7C19.8 12.1 20.1 12.4 20.6 12.4C21 12.4 21.4 12.1 21.4 11.6V9.9L22.9 10.8C23.3 11 23.7 10.9 23.9 10.5C24.1 10.1 23.8 9.8 23.5 9.6Z" fill="black"/>
<path d="M22.7 29.1L21.2 30V28.3C21.2 27.9 20.9 27.6 20.4 27.6C20 27.6 19.6 27.9 19.6 28.4V30.1L18.1 29.2C17.7 29 17.3 29.1 17.1 29.5C16.9 29.9 17 30.3 17.4 30.5L20 32C20.1 32.1 20.2 32.1 20.4 32.1C20.5 32.1 20.7 32.1 20.8 32L23.4 30.5C23.8 30.3 23.9 29.8 23.7 29.5C23.5 29.2 23.1 28.9 22.7 29.1Z" fill="black"/>
<path d="M27 16.2C27.2 16.6 27.7 16.7 28 16.5L29.5 15.6V17.3C29.5 17.7 29.8 18 30.3 18.1C30.7 18.1 31.1 17.8 31.1 17.3V14.3C31.1 14.2 31.1 14 31 13.9C30.9 13.8 30.8 13.7 30.7 13.6L28 12.2C27.6 12 27.2 12.1 27 12.5C26.8 12.9 26.9 13.3 27.3 13.5L28.8 14.3L27.3 15.2C26.9 15.4 26.8 15.9 27 16.2Z" fill="black"/>
<path d="M14 23.8C13.8 23.4 13.3 23.3 13 23.5L11.5 24.4V22.7C11.5 22.3 11.2 22 10.7 22C10.2 22 10 22.2 10 22.6V25.6C10 25.7 10 25.9 10.1 26C10.2 26.1 10.3 26.2 10.4 26.3L13 27.8C13.4 28 13.8 27.9 14 27.5C14.2 27.1 14.1 26.7 13.7 26.5L12.2 25.7L13.7 24.8C14.1 24.6 14.2 24.1 14 23.8Z" fill="black"/>
<path d="M22.7 17.9L20.5 19.2L18.3 17.9C17.9 17.7 17.5 17.8 17.3 18.2C17.1 18.6 17.2 19 17.6 19.2L19.8 20.5V23C19.8 23.4 20.1 23.7 20.5 23.7C20.9 23.7 21.2 23.4 21.2 23V20.4L23.4 19.1C23.8 18.9 23.9 18.4 23.7 18.1C23.5 17.8 23.1 17.6 22.7 17.9Z" fill="black"/>
</g>
</g>
<defs>
<filter id="filter0_d" x="-2" y="-2" width="44" height="44" filterUnits="userSpaceOnUse" color-interpolation-filters="sRGB">
<feFlood flood-opacity="0" result="BackgroundImageFix"/>
<feColorMatrix in="SourceAlpha" type="matrix" values="0 0 0 0 0 0 0 0 0 0 0 0 0 0 0 0 0 0 127 0"/>
<feOffset/>
<feGaussianBlur stdDeviation="1"/>
<feColorMatrix type="matrix" values="0 0 0 0 1 0 0 0 0 1 0 0 0 0 1 0 0 0 0.7 0"/>
<feBlend mode="normal" in2="BackgroundImageFix" result="effect1_dropShadow"/>
<feBlend mode="normal" in="SourceGraphic" in2="effect1_dropShadow" result="shape"/>
</filter>
<clipPath id="clip0">
<rect width="21" height="24" fill="white" transform="translate(10 8)"/>
</clipPath>
</defs>
</svg>
