<svg width="44" height="44" viewBox="0 0 44 44" fill="none" xmlns="http://www.w3.org/2000/svg">
<path d="M22.0562 5C12.6184 5 5 12.5933 5 22C5 29.2533 9.54833 35.3733 15.8023 37.8667C15.6886 36.5067 15.5749 34.4667 15.8023 32.9933C16.1434 31.6333 17.849 24.4933 17.849 24.4933C17.849 24.4933 17.3942 23.4733 17.3942 22C17.3942 19.62 18.7587 17.92 20.4643 17.92C21.9425 17.92 22.6248 19.0533 22.6248 20.3C22.6248 21.7733 21.7151 23.9267 21.2603 25.9667C20.8054 27.6667 22.1699 29.0267 23.7618 29.0267C26.832 29.0267 29.1061 25.8533 29.1061 21.2067C29.1061 17.1267 26.1497 14.2933 21.9425 14.2933C17.0531 14.2933 14.2104 17.92 14.2104 21.66C14.2104 23.1333 14.7789 24.72 15.4611 25.5133C15.5749 25.6267 15.5749 25.8533 15.5749 25.9667C15.4612 26.5333 15.12 27.6667 15.12 27.8933C15.0063 28.2333 14.8926 28.2333 14.5515 28.12C12.391 27.1 11.0265 24.04 11.0265 21.5467C11.0265 16.22 14.8926 11.2333 22.2836 11.2333C28.1965 11.2333 32.8585 15.4267 32.8585 21.0933C32.8585 26.9867 29.1061 31.6333 23.9893 31.6333C22.2836 31.6333 20.578 30.7267 20.1232 29.7067C20.1232 29.7067 19.2135 32.9933 19.0998 33.7867C18.7587 35.26 17.7353 37.0733 16.9394 38.2067C18.5313 38.66 20.2369 39 21.9425 39C31.3803 39 38.9987 31.4067 38.9987 22C39.1125 12.5933 31.494 5 22.0562 5Z" fill="black"/>
</svg>
