<svg width="40" height="40" viewBox="0 0 40 40" fill="none" xmlns="http://www.w3.org/2000/svg">
<g filter="url(#filter0_d)">
<path d="M14 20C14 16.7 16.7 14 20 14C20.9 14 21.7 14.2 22.4 14.5L24.6 12.3C23.3 11.5 21.7 11 20 11C15 11 11 15 11 20H8L12.5 25L17 20H14Z" fill="black"/>
<path d="M32 20L27.5 15L23 20H26C26 23.3 23.3 26 20 26C19.1 26 18.3 25.8 17.5 25.5L15.3 27.7C16.7 28.5 18.3 29 20 29C25 29 29 25 29 20H32Z" fill="black"/>
</g>
<defs>
<filter id="filter0_d" x="-2" y="-2" width="44" height="44" filterUnits="userSpaceOnUse" color-interpolation-filters="sRGB">
<feFlood flood-opacity="0" result="BackgroundImageFix"/>
<feColorMatrix in="SourceAlpha" type="matrix" values="0 0 0 0 0 0 0 0 0 0 0 0 0 0 0 0 0 0 127 0"/>
<feOffset/>
<feGaussianBlur stdDeviation="1"/>
<feColorMatrix type="matrix" values="0 0 0 0 1 0 0 0 0 1 0 0 0 0 1 0 0 0 0.7 0"/>
<feBlend mode="normal" in2="BackgroundImageFix" result="effect1_dropShadow"/>
<feBlend mode="normal" in="SourceGraphic" in2="effect1_dropShadow" result="shape"/>
</filter>
</defs>
</svg>
