<svg width="44" height="44" viewBox="0 0 44 44" fill="none" xmlns="http://www.w3.org/2000/svg">
<path fill-rule="evenodd" clip-rule="evenodd" d="M5 22C5 31.4 12.6 39 22 39C31.4 39 39 31.4 39 22C39 12.6 31.4 5 22 5C12.6 5 5 12.6 5 22ZM15.5 32.2V28.6C13.2 26.9 11.8 24.2 11.8 21.3C11.8 16.1 16.3 11.9 21.9 11.9C27.5 11.8 32 16 32 21.2C32 26.4 27.5 30.6 21.9 30.6C20.9 30.6 19.9 30.5 18.9 30.2L15.5 32.2Z" fill="black"/>
<path d="M20.8 18.6L15.3 24.4L20.3 21.7L22.9 24.4L28.3 18.6L23.4 21.3L20.8 18.6Z" fill="black"/>
</svg>
