<svg width="40" height="40" viewBox="0 0 40 40" fill="none" xmlns="http://www.w3.org/2000/svg">
<g filter="url(#filter0_d)">
<path d="M24 17C22.7 17 21.6 17.8 21.2 19H10V21H21.2C21.6 22.2 22.7 23 24 23C25.3 23 26.4 22.2 26.8 21H31V19H26.8C26.4 17.8 25.3 17 24 17ZM24 21.5C23.6 21.5 23.2 21.3 22.9 21C22.7 20.7 22.5 20.4 22.5 20C22.5 19.6 22.7 19.3 22.9 19C23.2 18.7 23.6 18.5 24 18.5C24.4 18.5 24.8 18.7 25.1 19C25.3 19.3 25.5 19.6 25.5 20C25.5 20.4 25.3 20.7 25.1 21C24.8 21.3 24.4 21.5 24 21.5Z" fill="white"/>
<path d="M16 24C14.7 24 13.6 24.8 13.2 26H10V28H13.2C13.6 29.2 14.7 30 16 30C17.3 30 18.4 29.2 18.8 28H31V26H18.8C18.4 24.8 17.3 24 16 24ZM16 28.5C15.6 28.5 15.2 28.3 14.9 28C14.7 27.7 14.5 27.4 14.5 27C14.5 26.6 14.7 26.3 14.9 26C15.2 25.7 15.6 25.5 16 25.5C16.4 25.5 16.8 25.7 17.1 26C17.3 26.3 17.5 26.6 17.5 27C17.5 27.4 17.3 27.7 17.1 28C16.8 28.3 16.4 28.5 16 28.5Z" fill="white"/>
<path d="M18.8 12C18.4 10.8 17.3 10 16 10C14.7 10 13.6 10.8 13.2 12H10V14H13.2C13.6 15.2 14.7 16 16 16C17.3 16 18.4 15.2 18.8 14H31V12H18.8ZM16 14.5C15.6 14.5 15.2 14.3 14.9 14C14.7 13.7 14.5 13.4 14.5 13C14.5 12.6 14.7 12.3 14.9 12C15.2 11.7 15.6 11.5 16 11.5C16.4 11.5 16.8 11.7 17.1 12C17.3 12.3 17.5 12.6 17.5 13C17.5 13.4 17.3 13.7 17.1 14C16.8 14.3 16.4 14.5 16 14.5Z" fill="white"/>
</g>
<defs>
<filter id="filter0_d" x="-2" y="-2" width="44" height="44" filterUnits="userSpaceOnUse" color-interpolation-filters="sRGB">
<feFlood flood-opacity="0" result="BackgroundImageFix"/>
<feColorMatrix in="SourceAlpha" type="matrix" values="0 0 0 0 0 0 0 0 0 0 0 0 0 0 0 0 0 0 127 0"/>
<feOffset/>
<feGaussianBlur stdDeviation="1"/>
<feColorMatrix type="matrix" values="0 0 0 0 0 0 0 0 0 0 0 0 0 0 0 0 0 0 0.7 0"/>
<feBlend mode="normal" in2="BackgroundImageFix" result="effect1_dropShadow"/>
<feBlend mode="normal" in="SourceGraphic" in2="effect1_dropShadow" result="shape"/>
</filter>
</defs>
</svg>
