<svg width="44" height="44" viewBox="0 0 44 44" fill="none" xmlns="http://www.w3.org/2000/svg">
<path fill-rule="evenodd" clip-rule="evenodd" d="M22 5C12.5933 5 5 12.5933 5 22C5 31.4067 12.5933 39 22 39C31.4067 39 39 31.4067 39 22C39 12.5933 31.4067 5 22 5ZM21.5467 19.3933V18.8267C21.4333 17.3533 22.34 15.88 23.8133 15.3133C24.38 15.0867 25.2867 15.0867 25.8533 15.3133C26.08 15.4267 26.5333 15.6533 26.8733 15.88L27.44 16.22L28.12 15.9933C28.46 15.88 28.9133 15.6533 29.14 15.54C29.3667 15.4267 29.48 15.4267 29.48 15.4267C29.48 15.6533 29.0267 16.3333 28.6867 16.6733C28.2333 17.24 28.3467 17.24 29.3667 16.9C29.9333 16.6733 29.9333 16.6733 29.82 16.9C29.7067 17.0133 29.3667 17.4667 29.0267 17.8067C28.3467 18.4867 28.3467 18.4867 28.3467 19.0533C28.3467 19.96 27.8933 21.66 27.5533 22.68C26.76 24.4933 25.1733 26.42 23.5867 27.3267C21.32 28.6867 18.3733 29.0267 15.7667 28.2333C14.9733 28.0067 13.5 27.3267 13.5 27.2133C13.5 27.2133 13.9533 27.1 14.52 27.1C15.6533 27.1 16.7867 26.76 17.6933 26.1933L18.3733 25.8533L17.58 25.6267C16.56 25.2867 15.54 24.4933 15.3133 23.7C15.2 23.4733 15.3133 23.4733 15.88 23.4733H16.56L15.9933 23.2467C15.3133 22.9067 14.6333 22.34 14.4067 21.66C14.18 21.2067 13.84 20.1867 13.9533 20.0733C13.9533 20.0733 14.18 20.0733 14.52 20.1867C15.3133 20.5267 15.4267 20.4133 14.9733 19.96C14.0667 19.0533 13.84 17.6933 14.18 16.4467L14.4067 15.88L15.2 16.6733C16.7867 18.26 18.7133 19.1667 20.8667 19.5067L21.5467 19.3933Z" fill="black"/>
</svg>
