<svg width="40" height="40" viewBox="0 0 40 40" fill="none" xmlns="http://www.w3.org/2000/svg">
<g filter="url(#filter0_d)">
<path d="M23.5 16.5C22.2 16.5 21.1 17.3 20.7 18.5H9.5V20.5H20.7C21.1 21.7 22.2 22.5 23.5 22.5C24.8 22.5 25.9 21.7 26.3 20.5H30.5V18.5H26.3C25.9 17.3 24.8 16.5 23.5 16.5ZM23.5 21C23.1 21 22.7 20.8 22.4 20.5C22.2 20.2 22 19.9 22 19.5C22 19.1 22.2 18.8 22.4 18.5C22.7 18.2 23.1 18 23.5 18C23.9 18 24.3 18.2 24.6 18.5C24.8 18.8 25 19.1 25 19.5C25 19.9 24.8 20.2 24.6 20.5C24.3 20.8 23.9 21 23.5 21Z" fill="black"/>
<path d="M15.5 23.5C14.2 23.5 13.1 24.3 12.7 25.5H9.5V27.5H12.7C13.1 28.7 14.2 29.5 15.5 29.5C16.8 29.5 17.9 28.7 18.3 27.5H30.5V25.5H18.3C17.9 24.3 16.8 23.5 15.5 23.5ZM15.5 28C15.1 28 14.7 27.8 14.4 27.5C14.2 27.2 14 26.9 14 26.5C14 26.1 14.2 25.8 14.4 25.5C14.7 25.2 15.1 25 15.5 25C15.9 25 16.3 25.2 16.6 25.5C16.8 25.8 17 26.1 17 26.5C17 26.9 16.8 27.2 16.6 27.5C16.3 27.8 15.9 28 15.5 28Z" fill="black"/>
<path d="M18.3 11.5C17.9 10.3 16.8 9.5 15.5 9.5C14.2 9.5 13.1 10.3 12.7 11.5H9.5V13.5H12.7C13.1 14.7 14.2 15.5 15.5 15.5C16.8 15.5 17.9 14.7 18.3 13.5H30.5V11.5H18.3ZM15.5 14C15.1 14 14.7 13.8 14.4 13.5C14.2 13.2 14 12.9 14 12.5C14 12.1 14.2 11.8 14.4 11.5C14.7 11.2 15.1 11 15.5 11C15.9 11 16.3 11.2 16.6 11.5C16.8 11.8 17 12.1 17 12.5C17 12.9 16.8 13.2 16.6 13.5C16.3 13.8 15.9 14 15.5 14Z" fill="black"/>
</g>
<defs>
<filter id="filter0_d" x="-2" y="-2" width="44" height="44" filterUnits="userSpaceOnUse" color-interpolation-filters="sRGB">
<feFlood flood-opacity="0" result="BackgroundImageFix"/>
<feColorMatrix in="SourceAlpha" type="matrix" values="0 0 0 0 0 0 0 0 0 0 0 0 0 0 0 0 0 0 127 0"/>
<feOffset/>
<feGaussianBlur stdDeviation="1"/>
<feColorMatrix type="matrix" values="0 0 0 0 1 0 0 0 0 1 0 0 0 0 1 0 0 0 0.7 0"/>
<feBlend mode="normal" in2="BackgroundImageFix" result="effect1_dropShadow"/>
<feBlend mode="normal" in="SourceGraphic" in2="effect1_dropShadow" result="shape"/>
</filter>
</defs>
</svg>
