<svg width="40" height="40" viewBox="0 0 40 40" fill="none" xmlns="http://www.w3.org/2000/svg">
<g filter="url(#filter0_d)">
<path d="M11.08 14.704C12.0613 14.32 13.1547 14.128 14.36 14.128C15.576 14.128 16.4613 14.3627 17.016 14.832C17.5707 15.2907 17.848 16.032 17.848 17.056C17.848 18.08 17.4373 18.864 16.616 19.408C17.128 19.6853 17.4907 19.9733 17.704 20.272C17.928 20.5707 18.04 21.0453 18.04 21.696C18.04 22.8373 17.752 23.6853 17.176 24.24C16.6107 24.7947 15.6987 25.072 14.44 25.072C13.512 25.072 12.536 24.9333 11.512 24.656L11 24.528L11.112 22.848C12.3067 23.0507 13.3093 23.152 14.12 23.152C15.2187 23.152 15.768 22.6827 15.768 21.744C15.768 21.3493 15.624 21.0347 15.336 20.8C15.0587 20.5653 14.6907 20.448 14.232 20.448H12.104V18.624H14.232C14.584 18.624 14.8933 18.4747 15.16 18.176C15.4373 17.8773 15.576 17.5467 15.576 17.184C15.576 16.4267 15.048 16.048 13.992 16.048C13.256 16.048 12.472 16.1227 11.64 16.272L11.224 16.336L11.08 14.704Z" fill="black"/>
<path d="M23.8891 24.88H20.2251V14H23.8891C24.8278 14 25.6011 14.1013 26.2091 14.304C26.8171 14.496 27.2865 14.8213 27.6171 15.28C27.9585 15.728 28.1931 16.2613 28.3211 16.88C28.4491 17.488 28.5131 18.2827 28.5131 19.264C28.5131 20.2453 28.4545 21.0613 28.3371 21.712C28.2198 22.352 27.9958 22.928 27.6651 23.44C27.3451 23.9413 26.8758 24.3093 26.2571 24.544C25.6385 24.768 24.8491 24.88 23.8891 24.88ZM26.2091 20.56C26.2305 20.2187 26.2411 19.7493 26.2411 19.152C26.2411 18.544 26.2198 18.0587 26.1771 17.696C26.1345 17.3333 26.0331 17.0027 25.8731 16.704C25.7131 16.4053 25.4731 16.2027 25.1531 16.096C24.8438 15.9787 24.4225 15.92 23.8891 15.92H22.4331V22.96H23.8891C24.6891 22.96 25.2705 22.7573 25.6331 22.352C25.9425 22.0213 26.1345 21.424 26.2091 20.56Z" fill="black"/>
</g>
<defs>
<filter id="filter0_d" x="-2" y="-2" width="44" height="44" filterUnits="userSpaceOnUse" color-interpolation-filters="sRGB">
<feFlood flood-opacity="0" result="BackgroundImageFix"/>
<feColorMatrix in="SourceAlpha" type="matrix" values="0 0 0 0 0 0 0 0 0 0 0 0 0 0 0 0 0 0 127 0"/>
<feOffset/>
<feGaussianBlur stdDeviation="1"/>
<feColorMatrix type="matrix" values="0 0 0 0 1 0 0 0 0 1 0 0 0 0 1 0 0 0 0.7 0"/>
<feBlend mode="normal" in2="BackgroundImageFix" result="effect1_dropShadow"/>
<feBlend mode="normal" in="SourceGraphic" in2="effect1_dropShadow" result="shape"/>
</filter>
</defs>
</svg>
