<svg width="40" height="40" viewBox="0 0 40 40" fill="none" xmlns="http://www.w3.org/2000/svg">
<g filter="url(#filter0_d)">
<path d="M8 11V29H18L20 25.2L22 29H32V11H8ZM30.5 27.5H22.9L21.3 24.5L20 22L18.7 24.5L17.1 27.5H9.5V12.5H30.5V27.5Z" fill="black"/>
<path d="M15 22C16.7 22 18 20.7 18 19C18 17.3 16.7 16 15 16C13.3 16 12 17.3 12 19C12 20.7 13.3 22 15 22ZM15 17.2C16 17.2 16.8 18 16.8 19C16.8 20 16 20.8 15 20.8C14 20.8 13.2 20 13.2 19C13.2 18 14 17.2 15 17.2Z" fill="black"/>
<path d="M25 22C26.7 22 28 20.7 28 19C28 17.3 26.7 16 25 16C23.3 16 22 17.3 22 19C22 20.7 23.3 22 25 22ZM25 17.2C26 17.2 26.8 18 26.8 19C26.8 20 26 20.8 25 20.8C24 20.8 23.2 20 23.2 19C23.2 18 24 17.2 25 17.2Z" fill="black"/>
</g>
<defs>
<filter id="filter0_d" x="-2" y="-2" width="44" height="44" filterUnits="userSpaceOnUse" color-interpolation-filters="sRGB">
<feFlood flood-opacity="0" result="BackgroundImageFix"/>
<feColorMatrix in="SourceAlpha" type="matrix" values="0 0 0 0 0 0 0 0 0 0 0 0 0 0 0 0 0 0 127 0"/>
<feOffset/>
<feGaussianBlur stdDeviation="1"/>
<feColorMatrix type="matrix" values="0 0 0 0 1 0 0 0 0 1 0 0 0 0 1 0 0 0 0.7 0"/>
<feBlend mode="normal" in2="BackgroundImageFix" result="effect1_dropShadow"/>
<feBlend mode="normal" in="SourceGraphic" in2="effect1_dropShadow" result="shape"/>
</filter>
</defs>
</svg>
