<svg width="44" height="44" viewBox="0 0 44 44" fill="none" xmlns="http://www.w3.org/2000/svg">
<path fill-rule="evenodd" clip-rule="evenodd" d="M22 5C12.6 5 5 12.6 5 22C5 31.4 12.6 39 22 39C31.4 39 39 31.4 39 22C39 12.6 31.4 5 22 5ZM16.3 13.8H13.8V30.2001H30.2001V27.7001H16.3V13.8ZM17.9001 24.5001V15.5001C17.9001 14.6001 18.6001 13.8001 19.5001 13.9001H28.5001C29.4001 13.9001 30.1001 14.6001 30.1001 15.5001V24.5001C30.1001 25.4001 29.4001 26.1001 28.5001 26.1001H19.5001C18.6001 26.1001 17.9001 25.4001 17.9001 24.5001ZM20.3001 23.6001H27.7001V16.2001H20.3001V23.6001Z" fill="black"/>
</svg>
