<svg width="40" height="40" viewBox="0 0 40 40" fill="none" xmlns="http://www.w3.org/2000/svg">
<path d="M28 13.5C28 13.1 27.8 12.7 27.6 12.4C27.5 12.3 27.3 12.2 27.1 12.1C26.9 12 26.7 12 26.5 12C26.3 12 26.1 12 25.9 12.1C25.6 12.2 25.4 12.4 25.2 12.6C25.1 12.9 25 13.2 25 13.5C25 13.8 25.1 14.1 25.3 14.3C25.5 14.5 25.7 14.7 26 14.8C26 14.9 26.1 15 26.2 15C26.4 16.8 26.4 19.5 25.3 20.6C25.2 20.7 25 20.8 24.9 20.9C24.8 20.7 24.7 20.6 24.6 20.4C24.5 20.3 24.3 20.2 24.1 20.1C23.9 20 23.7 20 23.5 20C23.3 20 23.1 20 22.9 20.1C22.6 20.2 22.4 20.4 22.2 20.6C22.2 20.7 22.1 20.7 22.1 20.8C21.2 20.4 21 19.3 20.8 17.7C20.6 15.9 20.4 13.8 18 13.2C17.9 12.9 17.8 12.6 17.6 12.4C17.4 12.3 17.3 12.2 17.1 12.1C16.9 12 16.7 12 16.5 12C16.3 12 16.1 12 15.9 12.1C15.6 12.2 15.4 12.4 15.3 12.7C15.1 12.8 15.1 13.1 15 13.3C14.5 13.5 14 13.9 13.6 14.4C11.6 17 12.3 22.6 12.7 25.3C12.5 25.4 12.3 25.6 12.2 25.7C12.1 25.9 12 26.2 12 26.5C12 26.8 12.1 27.1 12.3 27.3C12.5 27.5 12.7 27.7 13 27.8C13.1 28 13.3 28 13.5 28C13.7 28 13.9 28 14.1 27.9C14.3 27.8 14.4 27.7 14.6 27.6C14.8 27.3 15 26.9 15 26.5C15 26.1 14.8 25.7 14.6 25.4C14.5 25.3 14.3 25.2 14.1 25.1C14 25.1 13.8 25 13.7 25C13.3 22.5 12.6 17.2 14.4 15C14.6 14.7 14.9 14.5 15.3 14.3C15.3 14.3 15.3 14.3 15.3 14.4C15.5 14.6 15.7 14.8 16 14.9C16.1 15 16.3 15 16.5 15C16.7 15 16.9 15 17.1 14.9C17.3 14.8 17.4 14.7 17.6 14.6C17.7 14.5 17.8 14.4 17.9 14.2C19.5 14.7 19.7 16.1 19.9 17.8C20 19.4 20.3 21.2 22 21.9C22 22.1 22.1 22.2 22.2 22.4C22.4 22.6 22.6 22.8 22.9 22.9C23.1 23 23.3 23 23.5 23C23.7 23 23.9 23 24.1 22.9C24.3 22.8 24.4 22.7 24.6 22.6C24.8 22.4 24.9 22.2 25 22C25.4 21.9 25.8 21.6 26.1 21.3C27.7 19.8 27.5 16.6 27.3 14.8C27.4 14.7 27.5 14.7 27.6 14.6C27.8 14.3 28 13.9 28 13.5ZM13.5 26C13.8 26 14 26.2 14 26.5C14 26.8 13.8 27 13.5 27C13.2 27 13 26.8 13 26.5C13 26.2 13.2 26 13.5 26ZM16.5 14C16.2 14 16 13.8 16 13.5C16 13.2 16.2 13 16.5 13C16.8 13 17 13.2 17 13.5C17 13.8 16.8 14 16.5 14ZM23.5 22C23.2 22 23 21.8 23 21.5C23 21.2 23.2 21 23.5 21C23.8 21 24 21.2 24 21.5C24 21.8 23.8 22 23.5 22ZM26.5 14C26.2 14 26 13.8 26 13.5C26 13.2 26.2 13 26.5 13C26.8 13 27 13.2 27 13.5C27 13.8 26.8 14 26.5 14Z" fill="white"/>
</svg>
