<svg width="40" height="40" viewBox="0 0 40 40" fill="none" xmlns="http://www.w3.org/2000/svg">
<g clip-path="url(#clip0)">
<path d="M27.6 12.4C27.5 12.3 27.3 12.2 27.1 12.1C26.9 12 26.7 12 26.5 12C26.3 12 26.1 12 25.9 12.1C25.6 12.2 25.4 12.4 25.2 12.6C25.1 12.9 25 13.2 25 13.5C25 13.8 25.1 14.1 25.3 14.3C25.4 14.4 25.5 14.5 25.6 14.6L23.6 20C23.4 20 23.2 20 23 20.1L17.9 14.2C17.9 14 18 13.8 18 13.5C18 13.1 17.8 12.7 17.6 12.4C17.5 12.3 17.3 12.2 17.1 12.1C16.9 12 16.7 12 16.5 12C16.3 12 16.1 12 15.9 12.1C15.6 12.2 15.4 12.4 15.2 12.6C15.1 12.9 15 13.2 15 13.5C15 13.8 15.1 14.1 15.3 14.3C15.4 14.5 15.6 14.6 15.7 14.7L13.3 25C13.2 25 13 25 12.9 25.1C12.6 25.2 12.4 25.4 12.2 25.6C12 25.8 11.9 26.1 11.9 26.4C11.9 26.7 12 27 12.2 27.2C12.4 27.4 12.6 27.6 12.9 27.7C13.1 27.8 13.3 27.8 13.5 27.8C13.7 27.8 13.9 27.8 14.1 27.7C14.3 27.6 14.4 27.5 14.6 27.4C14.9 27.1 15 26.8 15 26.3C15 25.9 14.8 25.5 14.6 25.2C14.5 25.1 14.4 25.1 14.3 25L16.7 15C16.8 15 17 15 17.1 14.9L22.2 20.8C22.1 21 22 21.2 22 21.5C22 21.8 22.1 22.1 22.3 22.3C22.5 22.5 22.7 22.7 23 22.8C23.2 22.9 23.4 22.9 23.6 22.9C23.8 22.9 24 22.9 24.2 22.8C24.4 22.7 24.5 22.6 24.7 22.5C25 22.2 25.1 21.9 25.1 21.4C25.1 21 24.9 20.6 24.7 20.3L24.6 20.2L26.6 14.8C26.8 14.8 27 14.8 27.2 14.7C27.4 14.6 27.5 14.5 27.7 14.4C27.8 14.3 28 13.9 28 13.5C28 13.1 27.8 12.7 27.6 12.4ZM13.5 27C13.2 27 13 26.8 13 26.5C13 26.2 13.2 26 13.5 26C13.8 26 14 26.2 14 26.5C14 26.8 13.8 27 13.5 27ZM16.5 14C16.2 14 16 13.8 16 13.5C16 13.2 16.2 13 16.5 13C16.8 13 17 13.2 17 13.5C17 13.8 16.8 14 16.5 14ZM23.5 22C23.2 22 23 21.8 23 21.5C23 21.2 23.2 21 23.5 21C23.8 21 24 21.2 24 21.5C24 21.8 23.8 22 23.5 22ZM26.5 14C26.2 14 26 13.8 26 13.5C26 13.2 26.2 13 26.5 13C26.8 13 27 13.2 27 13.5C27 13.8 26.8 14 26.5 14Z" fill="white"/>
</g>
<defs>
<clipPath id="clip0">
<rect x="12" y="12" width="16" height="16" fill="white"/>
</clipPath>
</defs>
</svg>
